<svg width="79" height="79" viewBox="0 0 79 79" fill="none" xmlns="http://www.w3.org/2000/svg">
<g clip-path="url(#clip0_1438_958)">
<path d="M71.5595 15.947L62.0414 19.0117L69.4844 42.1276L79.0025 39.0629L71.5595 15.947Z" fill="url(#paint0_linear_1438_958)"/>
<path d="M58.9721 22.028C58.5274 20.6779 57.2742 19.8154 55.9187 19.8154C55.6184 19.8154 55.3135 19.8583 55.0134 19.9444L47.7561 22.083L46.0883 22.2535L44.5629 21.91C43.5021 21.0904 42.19 20.6352 40.7971 20.6352C40.3631 20.6352 39.9238 20.6781 39.5007 20.7744C39.4796 20.7744 39.4634 20.7798 39.4416 20.7852L34.439 21.9099L32.2964 22.392L23.9879 19.9444C23.6876 19.8583 23.3827 19.8154 23.0826 19.8154C21.7277 19.8154 20.4685 20.6779 20.0292 22.028L14.1852 39.8601C13.9231 40.669 13.987 41.558 14.3781 42.3187C14.7638 43.0794 15.4443 43.658 16.2587 43.9208L19.4512 44.949L19.6007 44.9971C19.7003 45.0382 19.8027 45.0768 19.901 45.1098C20.0402 45.565 20.2385 46.0044 20.5062 46.4111C20.678 46.6739 20.8817 46.9252 21.1119 47.1562C21.1868 47.2363 21.2722 47.3164 21.3529 47.3918C21.8772 47.8523 22.4886 48.1899 23.1365 48.4037C23.1756 48.5369 23.2522 48.6598 23.3034 48.7901C23.3444 48.8955 23.389 48.9985 23.4372 49.1005C23.5535 49.3465 23.6904 49.5796 23.8501 49.8075C23.9291 49.9195 24.0121 50.0288 24.1002 50.1343C24.1858 50.2368 24.2462 50.3531 24.3418 50.45C24.915 51.0286 25.6058 51.4517 26.3665 51.6927C26.5919 52.4426 26.9933 53.1502 27.5773 53.7445C28.1343 54.3176 28.8255 54.7354 29.5754 54.9764C29.9195 55.0897 30.2752 55.1627 30.6361 55.1971L35.3494 60.6657C36.3511 61.9886 37.8622 62.8348 39.5009 63.0169C39.7203 63.044 39.9402 63.0542 40.1597 63.0542C41.4242 63.0542 42.6345 62.6689 43.6681 61.9294C44.4932 61.34 45.1309 60.5745 45.5539 59.7222C46.5285 59.5938 47.4501 59.2298 48.2589 58.6512C49.0733 58.067 49.7212 57.3119 50.1551 56.4386C51.125 56.3102 52.0458 55.9462 52.8547 55.373C53.6852 54.7786 54.3175 54.0121 54.7406 53.161C55.7152 53.032 56.6368 52.668 57.4456 52.0892C59.7493 50.4451 60.5527 47.4664 59.551 44.9488L62.7435 43.9206C63.5578 43.6578 64.2322 43.0791 64.6233 42.3185C65.0091 41.5579 65.0791 40.669 64.8162 39.86L58.9721 22.028ZM39.1028 48.6119L39.0883 48.5913L37.3632 49.8191L37.3622 49.8197L37.3416 49.8342L42.9071 57.6231C42.7576 58.282 42.3876 58.8925 41.7987 59.3156C41.3003 59.6695 40.7269 59.8405 40.1593 59.8405C39.2812 59.8405 38.4131 59.4284 37.8618 58.6569L36.845 57.4773L34.102 54.1912C34.1616 54.1471 34.2213 54.1039 34.2779 54.0556C34.3424 54.0122 34.3955 53.9592 34.4546 53.9055L35.1079 53.3696C36.0843 52.5753 36.5382 51.2974 36.2663 50.0692C36.1807 49.6847 36.0548 49.3284 35.8686 49.0789C35.3171 48.3344 34.4654 47.9434 33.603 47.9434C33.0189 47.9434 32.4301 48.1254 31.9209 48.5003L31.5827 48.7493L31.2971 48.935C32.2633 48.1309 32.6435 46.7796 32.1252 45.6236C31.4332 44.08 29.6859 43.5501 28.3082 44.2192C28.1611 44.2837 28.0178 44.3565 27.8778 44.4415C28.4413 43.4923 28.4239 42.2615 27.7242 41.3195C26.7941 40.0689 25.0263 39.8084 23.7757 40.7378L21.6711 42.288L21.1328 42.1156L17.2446 40.8637L17.2386 40.8618L23.0826 23.0297L31.6697 25.5528L32.1891 25.7083L36.2202 24.8012L39.1849 24.1533C37.8541 26.0024 35.2486 29.2681 33.9298 30.9978C30.8499 35.0373 31.6697 39.1442 35.9544 37.9225C40.8655 36.5218 41.7496 30.4951 45.1792 30.2612L46.4811 30.2099L56.2348 45.5384C56.3265 45.6668 56.4067 45.8006 56.4711 45.9343C57.0708 47.1561 56.7224 48.6611 55.5814 49.4755C55.0884 49.8239 54.5261 49.995 53.9637 50.0004L53.455 49.2878L48.2753 42.0292L46.555 43.2625L46.5544 43.263L46.5339 43.2775L52.0193 50.9592L52.094 51.0658C51.9492 51.7197 51.5798 52.3304 50.9857 52.7535C50.7125 52.9519 50.4178 53.0911 50.1069 53.1712C49.8659 53.2411 49.6194 53.2784 49.3734 53.2784L43.6843 45.3128L41.9696 46.5333L41.9588 46.541L41.9383 46.5555L47.4984 54.3446C47.3537 55.0034 46.9843 55.6138 46.3947 56.0371C45.9023 56.3855 45.3395 56.5566 44.7771 56.5566L39.1253 48.6427L39.1028 48.6119Z" fill="url(#paint1_linear_1438_958)"/>
<path d="M16.954 19.0337H16.9534L16.9612 19.0101L7.44359 15.9453L0 39.0596L9.51811 42.1246L16.9366 19.086L16.954 19.0337Z" fill="url(#paint2_linear_1438_958)"/>
</g>
<defs>
<linearGradient id="paint0_linear_1438_958" x1="65.7629" y1="30.5697" x2="75.281" y2="27.505" gradientUnits="userSpaceOnUse">
<stop stop-color="#BF5331"/>
<stop offset="1" stop-color="#EF6A5A"/>
</linearGradient>
<linearGradient id="paint1_linear_1438_958" x1="14.0272" y1="41.4348" x2="64.973" y2="41.4348" gradientUnits="userSpaceOnUse">
<stop stop-color="#BF5331"/>
<stop offset="1" stop-color="#EF6A5A"/>
</linearGradient>
<linearGradient id="paint2_linear_1438_958" x1="0" y1="29.0349" x2="16.9612" y2="29.0349" gradientUnits="userSpaceOnUse">
<stop stop-color="#BF5331"/>
<stop offset="1" stop-color="#EF6A5A"/>
</linearGradient>
<clipPath id="clip0_1438_958">
<rect width="79" height="79" fill="white"/>
</clipPath>
</defs>
</svg>
