<svg width="78" height="79" viewBox="0 0 78 79" fill="none" xmlns="http://www.w3.org/2000/svg">
<path d="M57.7945 38.6921V38.667C56.0621 40.1516 54.4345 41.5589 53.1212 42.6961V62.1203C53.1212 63.9612 51.6457 65.4556 49.8281 65.4556H28.8798C27.69 65.4556 26.5101 65.3299 25.3776 65.0988V58.9969V54.3024V53.7144C25.3678 52.5287 24.4258 51.5841 23.2551 51.5841H12.0339C11.8053 50.4272 11.6817 49.2415 11.6817 48.0365V17.691C11.6817 15.8595 13.1567 14.3656 14.9748 14.3656H49.8283C51.6458 14.3656 53.1213 15.8595 53.1213 17.691V18.0282L53.1073 18.2752C53.1121 18.2705 53.1166 18.2663 53.1213 18.2611V18.2889C54.3394 16.9681 55.6342 15.7152 56.9567 14.5775C57.0046 14.5295 57.0618 14.4909 57.1092 14.4523C55.8911 11.6182 53.0735 9.62305 49.8283 9.62305H14.9746C10.5774 9.62305 6.99902 13.2474 6.99902 17.691V48.0365C6.99902 49.5502 7.16078 51.0733 7.45579 52.548C9.23571 61.1851 15.8883 67.9328 24.435 69.7354C25.8818 70.0343 27.3759 70.1883 28.8798 70.1883H49.8281C54.2254 70.1883 57.7945 66.5734 57.7945 62.1202V47.8399L57.8066 38.6818C57.8024 38.685 57.7987 38.6888 57.7945 38.6921Z" fill="url(#paint0_linear_1438_2056)"/>
<path d="M45.1763 43.2122C44.6028 42.7735 43.9034 42.1443 43.2073 41.4405C42.5111 40.7349 41.8893 40.0276 41.4566 39.4481C41.3656 39.3262 41.2461 39.1601 41.1281 38.9723C41.1146 38.9482 41.1029 38.9327 41.0894 38.9074L41.0886 38.9082C41.0877 38.9063 41.0863 38.9049 41.0853 38.903C41.0849 38.9034 41.0844 38.9039 41.0836 38.9053C41.0812 38.901 41.0788 38.8979 41.0766 38.8936C38.1906 41.7684 35.063 43.5772 32.6724 44.6387C32.4443 46.7774 31.9332 48.8791 31.4052 50.6291C31.3879 50.684 31.3712 50.7448 31.354 50.799C31.347 50.823 31.3395 50.8438 31.3327 50.8672C31.0013 51.9065 30.6666 52.7961 30.3901 53.4512C30.1918 53.4502 29.9849 53.5209 29.8237 53.6842C29.551 53.9605 29.518 54.3652 29.7159 54.6411C29.7276 54.6586 29.7364 54.6773 29.7471 54.6946C29.7499 54.6995 29.7504 54.704 29.7531 54.7088L29.754 54.7074C29.7554 54.7088 29.7559 54.7107 29.7572 54.7126L29.7591 54.7107C29.7624 54.7145 29.7632 54.7187 29.7665 54.7226L30.8493 53.6263C30.8404 53.617 30.8306 53.6089 30.8219 53.6005L35.991 48.1562C35.7019 47.5696 35.8353 46.793 36.3693 46.2528C37.0204 45.5938 38.0196 45.5373 38.6005 46.1257C39.1819 46.714 39.1261 47.7251 38.4746 48.3841C37.9411 48.9244 37.1743 49.0594 36.5943 48.7672L33.416 51.8582L30.4408 54.7349L30.4589 54.7335L30.4454 54.7472C30.4561 54.7429 30.4676 54.7378 30.4794 54.7326L30.4956 54.7321L30.1509 55.0818L30.1491 55.0828V55.0832L30.136 55.0969C30.4033 55.367 30.8619 55.3402 31.1608 55.0385C31.3495 54.8473 31.4285 54.5936 31.3969 54.3639C33.2907 53.6317 36.6363 52.5016 40.0692 52.1263C41.0098 49.9593 42.5471 47.1955 44.8953 44.544C45.1556 44.2522 45.4206 43.9598 45.7016 43.6709C45.7156 43.6577 45.7267 43.6427 45.7411 43.6295C45.7411 43.6295 45.7407 43.629 45.7402 43.629C45.7416 43.6277 45.743 43.6262 45.7444 43.6248C45.7435 43.6238 45.7431 43.6234 45.7422 43.6229C45.7454 43.6196 45.7477 43.6169 45.7509 43.6131C45.5188 43.4739 45.3184 43.3219 45.1763 43.2122Z" fill="url(#paint1_linear_1438_2056)"/>
<path d="M69.9861 14.4256L69.9196 14.3577C69.2413 13.688 68.341 13.334 67.3158 13.334C66.7483 13.334 66.1325 13.4412 65.4848 13.6521C63.797 14.2019 61.7582 15.5015 59.4238 17.5119C57.8089 18.9028 56.2549 20.4681 54.8077 22.1612C54.5308 22.4795 42.7387 36.4578 42.2847 36.9785C41.4836 37.8398 42.2904 38.9224 42.5552 39.2777C42.8824 39.7159 43.349 40.2478 43.8695 40.7745C44.39 41.3015 44.9157 41.7738 45.3488 42.1046C45.6346 42.3235 46.1676 42.7302 46.7647 42.7298C47.0874 42.7302 47.375 42.6126 47.612 42.3872C48.014 42.0271 62.2756 29.7248 62.2756 29.7248C63.95 28.2581 65.496 26.6846 66.8712 25.05C68.858 22.688 70.141 20.6241 70.6848 18.9159C71.4291 16.5757 70.7157 15.1821 69.9861 14.4256ZM50.5155 36.5119L46.623 39.979C46.3878 39.7861 46.0375 39.4778 45.5941 39.0292C45.1517 38.5817 44.8468 38.2263 44.6558 37.9881L48.0864 34.0518L50.3617 36.3553L50.5155 36.5119Z" fill="url(#paint2_linear_1438_2056)"/>
<defs>
<linearGradient id="paint0_linear_1438_2056" x1="6.99902" y1="39.9057" x2="57.8066" y2="39.9057" gradientUnits="userSpaceOnUse">
<stop stop-color="#BF5331"/>
<stop offset="1" stop-color="#EF6A5A"/>
</linearGradient>
<linearGradient id="paint1_linear_1438_2056" x1="29.5894" y1="47.0884" x2="45.7509" y2="47.0884" gradientUnits="userSpaceOnUse">
<stop stop-color="#BF5331"/>
<stop offset="1" stop-color="#EF6A5A"/>
</linearGradient>
<linearGradient id="paint2_linear_1438_2056" x1="41.9391" y1="28.0319" x2="71" y2="28.0319" gradientUnits="userSpaceOnUse">
<stop stop-color="#BF5331"/>
<stop offset="1" stop-color="#EF6A5A"/>
</linearGradient>
</defs>
</svg>
