<svg width="53" height="53" viewBox="0 0 53 53" fill="none" xmlns="http://www.w3.org/2000/svg">
<path d="M16.2683 45.8725C15.7275 45.8161 15.4618 45.4371 15.4392 45.0872C15.4108 44.6535 15.7206 44.2797 16.1928 44.1777L16.2299 44.1697L20.2295 44.0962L20.769 41.1448L4.66617 41.1995C2.68683 41.1659 1.18156 39.886 1.0015 38.0875L1.00024 38.0727L1.00339 11.087L1.00465 11.0722C1.15637 9.61672 2.24929 8.45305 3.78919 8.10714L3.82885 8.09802H3.86977C9.08315 8.0302 14.6044 8 21.7707 8C25.1186 8 28.5101 8.00627 31.7895 8.01254C35.0751 8.0188 38.4691 8.02507 41.807 8.02507C44.5815 8.02507 47.0537 8.02052 49.3636 8.0114H49.3944L49.4247 8.01596C50.8871 8.23821 51.8214 8.86734 52.281 9.93813C52.6744 10.8562 52.6625 11.9395 52.6499 12.9864C52.5706 19.9069 52.5769 26.955 52.5838 33.7718C52.585 35.1663 52.5863 36.5551 52.5869 37.9433C52.5895 38.7189 52.1645 39.5686 51.45 40.2171C50.8021 40.8052 49.995 41.1426 49.237 41.1426H32.7571L33.3275 44.1441L37.441 44.156L37.4907 44.1697C37.9025 44.2814 38.1631 44.6119 38.1543 45.012C38.1461 45.4092 37.8672 45.7403 37.4612 45.8354L37.4171 45.8457L16.2891 45.8742L16.2683 45.8719V45.8725ZM31.3947 44.1441L30.7412 41.1528L22.7131 41.1967L22.1238 44.1367L31.3941 44.1441H31.3947ZM41.389 39.3543C42.2112 39.3543 43.0586 39.3748 43.9557 39.3965C44.8497 39.4181 45.7688 39.4403 46.6559 39.4403C47.6027 39.4403 48.3966 39.4141 49.0828 39.3611C49.6576 39.3161 50.6114 38.7508 50.6114 38.2277V37.3831L2.97517 37.4395V38.0003C2.97517 38.8374 3.90755 39.4204 4.7436 39.4204C4.77256 39.4204 4.80215 39.4198 4.83111 39.4181H4.84559H7.2121C9.6762 39.4187 12.1422 39.4198 14.6082 39.4198C22.9788 39.4198 31.9827 39.4119 41.1107 39.3554C41.2026 39.3554 41.2958 39.3549 41.389 39.3549V39.3543ZM9.13415 35.7105C9.13918 35.6359 9.13415 35.5447 9.12911 35.4615C9.12218 35.351 9.11526 35.2375 9.12596 35.1247C9.49929 31.0444 11.9552 29.5491 15.7961 28.4601C15.9699 28.4111 16.2009 28.3655 16.4452 28.3176C16.7713 28.2538 17.1749 28.1746 17.3272 28.1011C17.4544 28.0241 17.6584 27.3579 17.7069 26.7539C16.8173 25.9224 16.2444 25.042 16.0039 24.1359C15.9384 24.1165 15.8717 24.1 15.8024 24.0829C15.6123 24.0362 15.397 23.9826 15.1603 23.8561C14.2103 23.3483 13.5587 22.0844 13.6437 20.915C13.7022 20.1069 14.0926 19.4761 14.7467 19.125C14.0441 15.9081 15.5909 13.1494 18.8054 11.907C19.6912 11.5645 20.769 11.3759 21.8399 11.3759C23.2105 11.3759 24.4664 11.6836 25.3774 12.2421C25.5128 12.3253 25.6525 12.4456 25.7879 12.5624C25.8659 12.6296 26.0107 12.7544 26.0554 12.7761C26.1001 12.7977 26.1782 12.8114 26.2607 12.8257C26.3627 12.8433 26.4898 12.8661 26.617 12.9146C27.9189 13.4109 28.7902 14.3489 29.207 15.7035C29.5891 16.9453 29.4922 18.2423 29.3323 19.1444C30.3818 19.826 30.5165 21.0039 30.2848 21.8969C30.0254 22.8953 29.1913 23.9661 27.8988 24.1678C27.6816 24.9753 27.3064 25.6711 26.7555 26.2917C26.6264 26.437 26.5062 26.5311 26.4193 26.6C26.2638 26.722 26.2474 26.7351 26.2764 27.024C26.311 27.3699 26.4407 27.7534 26.6271 28.064C29.8781 28.7615 33.3231 29.8927 34.3908 32.9307C34.6558 33.6835 34.8202 34.5999 34.88 35.6553H50.6139C50.6202 34.2807 50.6265 32.9056 50.6328 31.5311C50.6643 24.879 50.697 18.0041 50.6775 11.2329C50.6095 10.6636 50.3935 10.2624 50.0341 10.0407C49.6998 9.83498 49.3693 9.79338 48.9443 9.79338C48.8341 9.79338 48.724 9.79623 48.6069 9.79908C48.4929 9.80193 48.3632 9.80535 48.236 9.80535C48.2128 9.80535 48.1901 9.80535 48.1668 9.80535C45.007 9.77401 41.6018 9.75862 37.7558 9.75862C33.5931 9.75862 29.3606 9.77629 25.2679 9.79338C21.1745 9.81048 16.9413 9.82815 12.7774 9.82815C9.72845 9.82815 6.99302 9.81903 4.4156 9.79965C3.75582 9.82074 2.97643 10.5262 2.97643 11.1029V35.7117H9.1354L9.13415 35.7105ZM17.302 29.9087C15.3114 30.3002 12.7824 31.102 11.7733 32.7159C11.3785 33.3461 11.1311 34.3246 11.0386 34.9708C10.9863 35.3339 10.9712 35.555 10.9693 35.6855L33.0171 35.6541C32.9302 34.752 32.803 33.993 32.5046 33.2675C31.8411 31.6553 29.9555 30.5549 26.7423 29.9058C25.7041 31.2154 23.942 31.9938 22.0017 31.9938C20.0614 31.9938 18.3226 31.2165 17.302 29.9093V29.9087ZM18.9106 29.0208C19.5647 29.8038 20.7029 30.2688 21.9803 30.2688C23.2577 30.2688 24.4054 29.7998 25.0507 29.0089C25.0185 28.9524 24.982 28.8949 24.9436 28.8356C24.8599 28.704 24.7743 28.5689 24.7094 28.4116C24.6824 28.3461 24.6534 28.2367 24.6043 28.0498C24.5898 27.9939 24.5716 27.9238 24.552 27.8526C23.7575 28.2355 22.8277 28.4447 21.9066 28.4447C20.9856 28.4447 20.1653 28.2561 19.4344 27.897C19.3185 28.2908 19.1234 28.6555 18.9106 29.0214V29.0208ZM15.7577 20.5993C15.662 20.5993 15.6161 20.6255 15.5745 20.7036C15.3945 21.0409 15.5953 21.8741 15.8666 22.1847C16.0555 22.4001 16.2305 22.408 16.4962 22.4206C16.8305 22.436 17.336 22.4599 17.6426 23.0805C17.7981 23.3962 17.8945 23.6675 17.987 23.9302C18.1601 24.4197 18.2961 24.8061 18.7588 25.3115C19.5848 26.2142 20.6985 26.7111 21.894 26.7111C23.7305 26.7111 25.3944 25.5788 26.0328 23.8931C26.0668 23.8031 26.0938 23.6897 26.1222 23.57C26.2191 23.162 26.3815 22.4793 27.1735 22.3887C27.2107 22.3841 27.2484 22.3824 27.2862 22.3824C27.3895 22.3824 27.4745 22.3984 27.5425 22.4109C27.5827 22.4183 27.6174 22.4251 27.6407 22.4251C27.6438 22.4251 27.647 22.4251 27.6501 22.4251C28.0606 22.3858 28.4194 21.7436 28.4855 21.1914C28.5277 20.8392 28.4383 20.6546 28.3835 20.638C28.3099 20.6158 28.2608 20.6112 28.2331 20.6112C28.1701 20.6112 28.1355 20.6329 28.036 20.7024C27.9284 20.7771 27.7811 20.8797 27.5639 20.9087C27.5034 20.9167 27.4436 20.9213 27.3869 20.9213C26.5087 20.9213 26.4137 20.063 26.3564 19.5501C26.3368 19.3735 26.318 19.2065 26.2821 19.1011C26.1637 18.754 25.7973 18.5455 25.373 18.3038C25.1098 18.154 24.8385 17.999 24.6181 17.7978C24.552 17.7374 24.4841 17.6473 24.3777 17.5054C24.3399 17.4553 24.2832 17.3795 24.2285 17.3111C23.8942 17.5203 23.5284 17.6832 23.2067 17.8177C21.8349 18.3905 20.4479 18.6617 18.7104 18.697H18.6846C18.5335 18.697 18.4101 18.672 18.3194 18.6532C18.2678 18.6429 18.2206 18.6332 18.1941 18.6332C18.1633 18.6332 18.1003 18.6839 18.0525 18.7312C17.812 18.9666 17.7352 19.3786 17.6672 19.7422C17.5942 20.1303 17.5318 20.4659 17.2882 20.6825C17.1 20.85 16.8966 20.9355 16.6832 20.9355C16.415 20.9355 16.2154 20.8027 16.07 20.7058C16.0316 20.6802 15.9667 20.6369 15.9428 20.6283C15.8736 20.6101 15.81 20.6004 15.7565 20.6004L15.7577 20.5993ZM21.8324 13.0969C19.7888 13.0969 17.302 14.174 16.7184 16.1702C16.5774 16.6529 16.5082 17.1863 16.5088 17.7898C16.7304 17.514 16.9948 17.2849 17.2296 17.0815L17.3329 16.992H17.4758C19.3003 16.9869 21.2248 16.9054 22.9397 15.9907C23.0474 15.9332 23.2117 15.8181 23.3848 15.6955C23.9143 15.3228 24.2857 15.0789 24.62 15.0789C25.249 15.0835 25.4976 15.6596 25.6796 16.0802C25.7539 16.2523 25.8307 16.4295 25.905 16.5133C26.0441 16.6694 26.2959 16.8125 26.5629 16.9641C26.9507 17.1846 27.3517 17.4126 27.5979 17.7699C27.6016 17.3767 27.5702 17.0011 27.5022 16.633C27.4052 16.107 27.0602 14.8498 25.944 14.5307C25.871 14.5096 25.7772 14.4982 25.6783 14.4857C25.519 14.4658 25.339 14.443 25.174 14.3717C25.0085 14.2999 24.8574 14.1637 24.6824 14.0059C24.5483 13.8851 24.4098 13.7608 24.2927 13.6936C23.6096 13.3026 22.7591 13.0964 21.833 13.0964L21.8324 13.0969Z" fill="url(#paint1_linear_1_541)"/>
<path d="M39.8991 29.6142C35.766 29.6142 32.4036 26.5705 32.4036 22.8293C32.4036 19.0881 35.766 16.0444 39.8991 16.0444C44.0321 16.0444 47.3946 19.0881 47.3946 22.8293C47.3946 26.5705 44.0321 29.6142 39.8991 29.6142ZM39.9249 17.7831C36.8539 17.7831 34.3558 20.0444 34.3558 22.8242C34.3558 25.604 36.8539 27.8653 39.9249 27.8653C42.9959 27.8653 45.494 25.604 45.494 22.8242C45.494 20.0444 42.9959 17.7831 39.9249 17.7831Z" fill="url(#paint2_linear_1_541)"/>
<path d="M39.8973 29.4518C35.8625 29.4518 32.58 26.4805 32.58 22.8282C32.58 19.1759 35.8625 16.2046 39.8973 16.2046C43.9322 16.2046 47.2147 19.1759 47.2147 22.8282C47.2147 26.4805 43.9322 29.4518 39.8973 29.4518ZM39.9232 17.6207C36.754 17.6207 34.1753 19.9549 34.1753 22.8236C34.1753 25.6924 36.754 28.0266 39.9232 28.0266C43.0924 28.0266 45.671 25.6924 45.671 22.8236C45.671 19.9549 43.0924 17.6207 39.9232 17.6207Z" fill="url(#paint3_linear_1_541)"/>
<path d="M38.4575 26.3959C37.8223 26.3959 37.3886 26.0289 37.3257 25.4386C37.2363 24.6038 37.2772 23.7007 37.3162 22.8272C37.3515 22.0357 37.388 21.2169 37.3263 20.4699L37.3244 20.4488L37.3257 20.4272C37.3628 19.8363 37.8356 19.4072 38.4512 19.4072C38.7061 19.4072 38.9604 19.4841 39.1864 19.6295L43.5544 22.1799L43.5815 22.2044C43.8176 22.4181 43.9328 22.6733 43.9139 22.9429C43.8937 23.2392 43.7112 23.5229 43.4008 23.7412C42.7267 24.2158 41.931 24.6449 41.1611 25.0597C40.4448 25.446 39.7045 25.8454 39.0782 26.2734L39.0265 26.3087L38.9648 26.3252C38.7899 26.3719 38.6193 26.3959 38.4587 26.3959H38.4575ZM39.2368 24.1936L41.3128 22.9081L41.2052 22.8466C40.5562 22.4773 39.8883 22.0973 39.2368 21.699V24.1936Z" fill="url(#paint4_linear_1_541)"/>
<path d="M38.4591 26.2345C37.9158 26.2345 37.5589 25.9314 37.5048 25.4231C37.4166 24.5997 37.4569 23.7017 37.4959 22.8333C37.5318 22.0368 37.5683 21.2134 37.5054 20.4573V20.4464V20.4356C37.5369 19.933 37.9353 19.5684 38.4528 19.5684C38.6718 19.5684 38.8915 19.6356 39.0879 19.7627L43.4433 22.3057L43.4565 22.3177C43.6555 22.4977 43.7524 22.7103 43.7373 22.9319C43.7203 23.1815 43.5623 23.4231 43.2929 23.6128C42.6275 24.0812 41.8362 24.508 41.0714 24.9205C40.3513 25.3086 39.6066 25.7103 38.9721 26.1439L38.9463 26.1616L38.9154 26.1701C38.7568 26.2129 38.6032 26.2345 38.4597 26.2345H38.4591ZM39.0596 24.5006L41.6399 22.9034C41.5272 22.839 41.4145 22.7752 41.3018 22.7108C40.5603 22.2892 39.7961 21.8538 39.0596 21.394V24.5006Z" fill="url(#paint5_linear_1_541)"/>
<path d="M32.3361 40.821L33.0293 44.4677L37.3909 44.4802C37.9575 44.6341 37.9209 45.3954 37.3745 45.5242L16.3126 45.5527C15.6402 45.482 15.622 44.6346 16.278 44.4933L20.5357 44.4152L21.1929 40.8222L4.66765 40.878C2.85578 40.8467 1.52174 39.6807 1.35931 38.06L1.36246 11.104C1.49782 9.80355 2.47237 8.73846 3.87755 8.42275C19.0241 8.22672 34.2072 8.39711 49.3676 8.33727C52.273 8.77949 52.3208 10.794 52.2957 12.9863C52.2 21.2973 52.2289 29.6271 52.2327 37.9466C52.2365 39.2972 50.7583 40.8222 49.2398 40.8222H32.3361V40.821ZM50.9711 35.9771C51.007 27.7248 51.0598 19.4726 51.0365 11.214C50.9736 10.6566 50.7665 10.0982 50.237 9.77221C49.5779 9.36589 48.8986 9.48841 48.1727 9.48101C33.589 9.33683 18.997 9.58472 4.41268 9.47531C3.56718 9.49753 2.62095 10.3404 2.62095 11.1017V35.9481L2.71538 36.0336H9.38871C9.57317 35.8107 9.45796 35.4358 9.48377 35.1508C9.83632 31.3008 12.0964 29.8476 15.9046 28.7677C16.317 28.6509 17.177 28.5392 17.4968 28.3853C17.8947 28.1939 18.0596 27.0142 18.0735 26.6278C17.2412 25.8756 16.5443 24.9593 16.3132 23.8959C15.9714 23.7574 15.6837 23.7591 15.3431 23.5773C13.8655 22.7881 13.3266 20.0025 15.1542 19.2999C14.378 16.2254 15.7177 13.4513 18.9467 12.2033C20.7755 11.4966 23.4889 11.4727 25.1787 12.5087C25.4085 12.6495 25.7201 12.98 25.8907 13.0609C26.0613 13.1419 26.2823 13.1356 26.48 13.2114C29.1071 14.2126 29.3917 17.0546 28.9422 19.2982C30.9927 20.3775 29.9054 23.7375 27.6075 23.8731C27.4193 24.7011 27.0636 25.43 26.4793 26.0876C26.1123 26.5002 25.858 26.405 25.9228 27.0513C25.9669 27.4884 26.1425 27.9733 26.3975 28.3443C29.4584 28.9905 32.9991 30.0294 34.0523 33.0264C34.3784 33.9541 34.5037 35.0078 34.5396 35.976H50.9711V35.9771ZM27.8656 18.881C27.9808 18.1009 28.001 17.3612 27.8574 16.581C27.6805 15.6179 27.1586 14.5397 26.0544 14.224C25.8208 14.1574 25.5344 14.1699 25.3304 14.0816C25.1107 13.9864 24.789 13.5955 24.4855 13.4217C21.7923 11.8802 17.2154 13.2182 16.3762 16.0881C16.1067 17.0096 16.12 17.9385 16.2201 18.881C16.4373 18.6252 16.5531 18.3026 16.7602 18.0313C16.9673 17.7601 17.2217 17.5384 17.4798 17.315C19.4547 17.3099 21.3881 17.1948 23.1238 16.2693C23.5041 16.0664 24.269 15.4003 24.6253 15.4025C25.2089 15.4065 25.3153 16.3622 25.6301 16.7167C26.0223 17.1572 26.9295 17.4068 27.2984 17.9419L27.8656 18.881ZM24.2551 16.8905C23.9038 17.1532 23.4738 17.3509 23.0615 17.523C21.6317 18.1197 20.275 18.3408 18.7068 18.3727C18.324 18.3807 18.1585 18.1539 17.7946 18.5106C17.2305 19.0634 17.4024 20.1296 17.0423 20.451C16.5959 20.8482 16.322 20.3889 16.0494 20.3177C14.7588 19.9786 15.102 21.8278 15.5905 22.3857C16.1993 23.081 16.9069 22.3755 17.3205 23.2132C17.7562 24.0953 17.7216 24.6806 18.4884 25.5183C20.9348 28.1921 25.1957 27.1094 26.3755 23.999C26.5499 23.5391 26.5165 22.7909 27.2235 22.71C27.4079 22.6889 27.5282 22.7618 27.6931 22.7465C28.7332 22.6473 29.2563 20.5582 28.5009 20.3313C27.9355 20.1615 27.8581 20.5428 27.5162 20.5889C26.6053 20.7114 26.8042 19.5204 26.6279 19.0058C26.3818 18.2855 25.4078 18.0564 24.8771 17.5703C24.7443 17.4489 24.388 16.8688 24.2557 16.891L24.2551 16.8905ZM19.179 27.3721C19.1211 27.9841 18.8075 28.5153 18.4959 29.0447C19.9829 31.1116 23.9976 31.1053 25.4613 29.043C25.3543 28.7825 25.1548 28.5626 25.0477 28.2993C24.9886 28.1545 24.8249 27.3772 24.7506 27.3732C23.1188 28.3369 20.7957 28.4047 19.179 27.3721ZM17.4666 29.5479C15.3859 29.9325 12.5781 30.7771 11.465 32.5568C11.0621 33.2007 10.792 34.1952 10.6869 34.9297C10.6617 35.1075 10.544 35.9264 10.6755 36.0091L33.407 35.9766C33.3258 35.0232 33.2131 34.0567 32.8417 33.1546C31.9137 30.8996 28.9762 30.0015 26.5857 29.5439C24.5712 32.3653 19.4629 32.3921 17.4672 29.5479H17.4666ZM50.9711 37.0599L2.62095 37.1169V38.0002C2.62095 39.0419 3.76801 39.793 4.85274 39.7411C16.9352 39.7446 29.0643 39.7537 41.116 39.679C43.643 39.6636 46.6605 39.8751 49.1164 39.6836C49.8612 39.6255 50.9711 38.9581 50.9711 38.2281V37.0599ZM31.8319 44.4682L31.0374 40.8285L22.4181 40.8758L21.7218 44.3508L21.7998 44.4597L31.8319 44.4677V44.4682Z" fill="url(#paint6_linear_1_541)"/>
<path d="M47.0363 22.8275C47.0363 26.396 43.84 29.2893 39.8977 29.2893C35.9554 29.2893 32.7592 26.396 32.7592 22.8275C32.7592 19.259 35.9554 16.3657 39.8977 16.3657C43.84 16.3657 47.0363 19.259 47.0363 22.8275ZM45.8489 22.8229C45.8489 19.8602 43.196 17.4587 39.9229 17.4587C36.6498 17.4587 33.9969 19.8602 33.9969 22.8229C33.9969 25.7857 36.6498 28.1871 39.9229 28.1871C43.196 28.1871 45.8489 25.7857 45.8489 22.8229Z" fill="url(#paint7_linear_1_541)"/>
<path d="M43.3299 22.4322C43.7177 22.7832 43.5792 23.2066 43.1826 23.4858C41.9023 24.3866 40.1831 25.1143 38.8637 26.0151C38.2607 26.1769 37.7458 26.0037 37.6822 25.4071C37.5147 23.8419 37.8156 22.0362 37.6828 20.4447C37.7225 19.8117 38.4118 19.5211 38.9865 19.896L43.3299 22.4316V22.4322ZM38.882 24.806L41.9652 22.8972C40.9398 22.3103 39.9043 21.7365 38.9122 21.1028C38.7202 21.0875 38.882 21.1644 38.882 21.1877V24.806Z" fill="url(#paint8_linear_1_541)"/>
<defs>
<linearGradient id="paint0_linear_1_541" x1="1.00024" y1="26.9371" x2="52.6543" y2="26.9371" gradientUnits="userSpaceOnUse">
<stop stop-color="#BF5331"/>
<stop offset="1" stop-color="#EF6A5A"/>
</linearGradient>
<linearGradient id="paint1_linear_1_541" x1="1.18011" y1="26.9378" x2="52.4769" y2="26.9378" gradientUnits="userSpaceOnUse">
<stop stop-color="#BF5331"/>
<stop offset="1" stop-color="#EF6A5A"/>
</linearGradient>
<linearGradient id="paint2_linear_1_541" x1="32.4036" y1="22.8293" x2="47.3946" y2="22.8293" gradientUnits="userSpaceOnUse">
<stop stop-color="#BF5331"/>
<stop offset="1" stop-color="#EF6A5A"/>
</linearGradient>
<linearGradient id="paint3_linear_1_541" x1="32.58" y1="22.8282" x2="47.2147" y2="22.8282" gradientUnits="userSpaceOnUse">
<stop stop-color="#BF5331"/>
<stop offset="1" stop-color="#EF6A5A"/>
</linearGradient>
<linearGradient id="paint4_linear_1_541" x1="37.2721" y1="22.9016" x2="43.9159" y2="22.9016" gradientUnits="userSpaceOnUse">
<stop stop-color="#BF5331"/>
<stop offset="1" stop-color="#EF6A5A"/>
</linearGradient>
<linearGradient id="paint5_linear_1_541" x1="37.452" y1="22.9014" x2="43.7388" y2="22.9014" gradientUnits="userSpaceOnUse">
<stop stop-color="#BF5331"/>
<stop offset="1" stop-color="#EF6A5A"/>
</linearGradient>
<linearGradient id="paint6_linear_1_541" x1="1.35931" y1="26.9389" x2="52.2989" y2="26.9389" gradientUnits="userSpaceOnUse">
<stop stop-color="#BF5331"/>
<stop offset="1" stop-color="#EF6A5A"/>
</linearGradient>
<linearGradient id="paint7_linear_1_541" x1="32.7592" y1="22.8275" x2="47.0363" y2="22.8275" gradientUnits="userSpaceOnUse">
<stop stop-color="#BF5331"/>
<stop offset="1" stop-color="#EF6A5A"/>
</linearGradient>
<linearGradient id="paint8_linear_1_541" x1="37.63" y1="22.901" x2="43.56" y2="22.901" gradientUnits="userSpaceOnUse">
<stop stop-color="#BF5331"/>
<stop offset="1" stop-color="#EF6A5A"/>
</linearGradient>
</defs>
</svg>
