<svg width="53" height="53" viewBox="0 0 53 53" fill="none" xmlns="http://www.w3.org/2000/svg">
<g clip-path="url(#clip0_1_839)">
<path d="M28.7002 13.1621L51.088 20.0834C51.3845 20.1746 51.6066 20.3087 51.7593 20.4741L51.8092 20.5376C51.9863 20.7602 52.0391 21.0088 51.9726 21.2752C51.9197 21.4827 51.7925 21.6785 51.59 21.8528C51.3013 22.1059 50.8081 22.3598 50.1417 22.5654L29.6493 28.902C28.9252 29.1246 28.0935 29.2722 27.339 29.3276C26.5454 29.3884 25.8027 29.3482 25.3027 29.1935L2.91197 22.2704C2.61841 22.1792 2.39628 22.0478 2.24363 21.8823C2.02444 21.6418 1.95496 21.37 2.02737 21.0785C2.08021 20.8729 2.20742 20.678 2.40704 20.5009C2.69865 20.2479 3.19183 19.9967 3.85723 19.791L24.3506 13.4554C25.0747 13.2327 25.9065 13.0825 26.6609 13.0271C27.4545 12.9663 28.2001 13.0065 28.6992 13.1612L28.7002 13.1621ZM49.9862 21.1733L28.2256 14.4442C27.9232 14.3504 27.3909 14.3325 26.7832 14.3781C26.1345 14.4264 25.4299 14.5506 24.8281 14.7384L4.33573 21.0741C4.21635 21.1098 4.11067 21.1447 4.01379 21.1805L25.7744 27.9095C26.0797 28.0034 26.6091 28.0213 27.2167 27.9757C27.8655 27.9274 28.57 27.8031 29.1718 27.6181L49.6642 21.2815C49.7836 21.2439 49.8893 21.2082 49.9862 21.1724V21.1733Z" fill="url(#paint0_linear_1_839)"/>
<path d="M40.8692 24.4865C40.8692 24.111 41.2019 23.807 41.6129 23.807C42.0239 23.807 42.3566 24.111 42.3566 24.4865V33.6458C42.3566 33.914 42.1844 34.1447 41.9378 34.2564C36.7477 36.996 31.6387 38.3675 26.5377 38.3675C21.4366 38.3675 16.3189 36.9888 11.163 34.2287C10.9301 34.1018 10.797 33.8764 10.797 33.6458H10.7941V24.2227C10.7941 23.8472 11.1268 23.5459 11.5378 23.5459C11.9487 23.5459 12.2814 23.8472 12.2814 24.2227V33.2586C17.0743 35.7603 21.8035 37.0121 26.5386 37.0121C31.2737 37.0121 36.0275 35.7576 40.8702 33.2532V24.4865H40.8692Z" fill="url(#paint1_linear_1_839)"/>
<path d="M13.5995 25.0916C13.5995 24.7161 13.9322 24.4121 14.3432 24.4121C14.7542 24.4121 15.0869 24.7161 15.0869 25.0916V37.3767C15.0869 37.7522 14.7542 38.0562 14.3432 38.0562C13.9322 38.0562 13.5995 37.7522 13.5995 37.3767V25.0916Z" fill="url(#paint2_linear_1_839)"/>
<path d="M13.5946 36.6973H15.0928C15.4255 36.6973 15.7053 36.8975 15.8032 37.1711L17.2622 40.5723C17.4119 40.9192 17.223 41.3127 16.8404 41.4495C16.813 41.4593 16.7846 41.4673 16.7572 41.4754C15.95 41.7007 15.1456 41.8151 14.3442 41.8151C13.5428 41.8151 12.7159 41.6989 11.8979 41.4655C11.5064 41.3565 11.2873 40.9792 11.4096 40.6215L11.4262 40.5732L12.9048 37.1318C13.0183 36.8627 13.2991 36.7008 13.5956 36.6982L13.5946 36.6973ZM14.5869 38.0554H14.0986L13.1112 40.3488C13.5222 40.4194 13.9322 40.4552 14.3432 40.4552C14.7542 40.4552 15.1642 40.4194 15.5752 40.3488L14.5878 38.0554H14.5869Z" fill="url(#paint3_linear_1_839)"/>
<path d="M14.582 25.7325C14.1935 25.8514 13.7718 25.6618 13.6416 25.3069C13.5115 24.9546 13.7189 24.5692 14.1045 24.4503L26.7608 20.5368C27.1493 20.4152 27.571 20.6048 27.7011 20.9597C27.8313 21.3147 27.6238 21.6974 27.2383 21.819L14.581 25.7325H14.582Z" fill="url(#paint4_linear_1_839)"/>
</g>
<defs>
<linearGradient id="paint0_linear_1_839" x1="1.99979" y1="21.1773" x2="52.0003" y2="21.1773" gradientUnits="userSpaceOnUse">
<stop stop-color="#BF5331"/>
<stop offset="1" stop-color="#EF6A5A"/>
</linearGradient>
<linearGradient id="paint1_linear_1_839" x1="10.7941" y1="30.9567" x2="42.3566" y2="30.9567" gradientUnits="userSpaceOnUse">
<stop stop-color="#BF5331"/>
<stop offset="1" stop-color="#EF6A5A"/>
</linearGradient>
<linearGradient id="paint2_linear_1_839" x1="13.5995" y1="31.2342" x2="15.0869" y2="31.2342" gradientUnits="userSpaceOnUse">
<stop stop-color="#BF5331"/>
<stop offset="1" stop-color="#EF6A5A"/>
</linearGradient>
<linearGradient id="paint3_linear_1_839" x1="11.3757" y1="39.2562" x2="17.3135" y2="39.2562" gradientUnits="userSpaceOnUse">
<stop stop-color="#BF5331"/>
<stop offset="1" stop-color="#EF6A5A"/>
</linearGradient>
<linearGradient id="paint4_linear_1_839" x1="13.6028" y1="23.134" x2="27.74" y2="23.134" gradientUnits="userSpaceOnUse">
<stop stop-color="#BF5331"/>
<stop offset="1" stop-color="#EF6A5A"/>
</linearGradient>
<clipPath id="clip0_1_839">
<rect width="50" height="28.8136" fill="white" transform="translate(2 13)"/>
</clipPath>
</defs>
</svg>
