<svg width="53" height="53" viewBox="0 0 53 53" fill="none" xmlns="http://www.w3.org/2000/svg">
<path d="M48.784 43.9791L40.9972 43.9688L36.9154 50.8475L23.8516 26.5585L35.7205 19.6904L48.784 43.9791Z" fill="white"/>
<path d="M35.5496 18.7022C35.7668 18.5789 36.0287 18.5457 36.273 18.6106C36.5172 18.6755 36.7218 18.8327 36.838 19.0445L49.8973 42.8597C50.0437 43.1265 50.0313 43.4456 49.8646 43.7017C49.698 43.9578 49.4012 44.1138 49.0816 44.1134L41.8314 44.1041L38.0146 50.4127C37.8485 50.6872 37.5355 50.8542 37.1993 50.8477C36.863 50.8413 36.5575 50.6623 36.4036 50.3815L23.3439 26.5661C23.1234 26.164 23.2723 25.6703 23.6845 25.4364L35.5496 18.7022ZM25.3645 26.4929L37.2576 48.1811L40.5021 42.8186L40.5098 42.806C40.6746 42.544 40.975 42.3829 41.2999 42.3833L47.5799 42.3914L35.658 20.6506L25.3645 26.4929Z" fill="url(#paint0_linear_1_986)"/>
<path d="M6.21484 43.9791L14.0019 43.9688L18.0837 50.8475L31.1473 26.5585L19.2787 19.6904L6.21484 43.9791Z" fill="white"/>
<path d="M18.7263 18.6106C18.9705 18.5457 19.2325 18.5789 19.4497 18.7022L31.3145 25.4364C31.7267 25.6703 31.8755 26.164 31.655 26.5661L18.5956 50.3815C18.4417 50.6623 18.1363 50.8413 17.8 50.8477C17.4637 50.8542 17.1507 50.6872 16.9846 50.4127L13.1679 44.1041L5.91734 44.1134C5.5977 44.1138 5.30094 43.9578 5.13432 43.7017C4.96769 43.4456 4.95529 43.1265 5.1016 42.8597L18.1613 19.0445L18.1724 19.0248C18.2903 18.8229 18.4897 18.6735 18.7263 18.6106ZM7.41915 42.3914L13.6994 42.3833L13.7148 42.3834C14.0389 42.3881 14.3367 42.5533 14.4972 42.8186L17.7416 48.1811L29.6344 26.4928L19.3412 20.6506L7.41915 42.3914Z" fill="url(#paint1_linear_1_986)"/>
<path d="M47.5687 21.6381C47.5687 23.5056 45.1153 24.9964 44.5155 26.6814C43.8939 28.4279 44.8968 30.9457 43.7371 32.3993C42.5659 33.8675 39.623 33.7703 38.0135 34.8387C36.42 35.8966 35.6184 38.4855 33.7038 39.0526C31.8566 39.5997 29.5483 37.953 27.5012 37.953C25.454 37.953 23.1457 39.5997 21.2985 39.0526C19.384 38.4855 18.5823 35.8966 16.9888 34.8387C15.3793 33.7703 12.4365 33.8672 11.2652 32.3993C10.1056 30.9457 11.1085 28.4279 10.4868 26.6814C9.88706 24.9964 7.43359 23.5056 7.43359 21.6381C7.43359 19.7707 9.88706 18.2799 10.4868 16.5949C11.1085 14.8484 10.1056 12.3306 11.2652 10.877C12.4365 9.40876 15.3793 9.506 16.9888 8.43757C18.5823 7.37973 19.384 4.79075 21.2985 4.22365C23.1457 3.67657 25.454 5.32325 27.5012 5.32325C29.5483 5.32325 31.8566 3.67657 33.7038 4.22365C35.6184 4.79075 36.42 7.37973 38.0135 8.43757C39.623 9.506 42.5659 9.40905 43.7371 10.877C44.8968 12.3306 43.8942 14.8484 44.5155 16.5949C45.1153 18.2799 47.5687 19.7707 47.5687 21.6381Z" fill="white"/>
<path d="M45.7719 21.6386C45.7719 21.0217 45.385 20.3869 44.7147 19.5427C44.4114 19.1608 44.0309 18.7101 43.7174 18.2806C43.3967 17.8409 43.0834 17.3429 42.8993 16.7938L42.8993 16.7937C42.7117 16.234 42.6566 15.6454 42.6448 15.0977C42.6333 14.5602 42.6643 13.9806 42.6767 13.4936C42.7043 12.4182 42.635 11.7069 42.2838 11.2397V11.2397C41.9265 10.7643 41.242 10.4785 40.1783 10.1733C39.6966 10.0351 39.1171 9.88553 38.595 9.71084C38.0627 9.53274 37.503 9.30219 37.0143 8.95786H37.0142C36.5283 8.61543 36.1322 8.17131 35.7959 7.73724C35.4667 7.31217 35.1414 6.82317 34.8584 6.42343C34.2332 5.54011 33.7367 4.99421 33.1487 4.80933V4.80936C32.596 4.63562 31.8868 4.79122 30.8349 5.1515C29.9102 5.46822 28.676 5.96675 27.5012 5.96675C26.3263 5.96675 25.0922 5.46822 24.1674 5.1515C23.1155 4.79122 22.4063 4.63561 21.8537 4.80936L21.8536 4.80933C21.2656 4.99422 20.7691 5.54013 20.1439 6.42343C19.8609 6.82317 19.5357 7.31217 19.2064 7.73724C18.8701 8.17131 18.4741 8.61543 17.9881 8.95786H17.988C17.4993 9.30219 16.9396 9.5327 16.4073 9.71078C15.8852 9.88545 15.3057 10.035 14.824 10.1732C13.7603 10.4783 13.0759 10.7642 12.7185 11.2397L12.7185 11.2397C12.3674 11.7069 12.2981 12.4181 12.3257 13.4936C12.3382 13.9806 12.3692 14.5602 12.3576 15.0977C12.3458 15.6454 12.2907 16.2341 12.103 16.7939C11.9189 17.3429 11.6057 17.8409 11.2849 18.2806C10.9714 18.7101 10.5909 19.1608 10.2877 19.5427C9.61738 20.3869 9.23039 21.0217 9.23039 21.6386C9.2304 22.2555 9.61738 22.8903 10.2877 23.7345C10.5909 24.1164 10.9714 24.567 11.2849 24.9966C11.6057 25.4363 11.9189 25.9343 12.103 26.4833L12.1202 26.5359C12.2941 27.0798 12.3462 27.6489 12.3576 28.1795C12.3692 28.717 12.3382 29.2966 12.3257 29.7836C12.2981 30.8591 12.3673 31.5703 12.7185 32.0375L12.7354 32.0596C13.0973 32.5218 13.7769 32.8035 14.824 33.1039C15.3057 33.2421 15.8853 33.3917 16.4073 33.5664C16.9396 33.7445 17.4994 33.975 17.988 34.3193L17.9881 34.3194C18.4741 34.6618 18.8701 35.1059 19.2064 35.54C19.5357 35.965 19.8609 36.454 20.1439 36.8538C20.7692 37.7371 21.2656 38.283 21.8537 38.4679H21.8537C22.4063 38.6416 23.1155 38.486 24.1674 38.1257C25.0922 37.809 26.3263 37.3104 27.5012 37.3104C28.676 37.3104 29.9102 37.809 30.8349 38.1257C31.8868 38.486 32.596 38.6416 33.1487 38.4679L33.1762 38.4589C33.7522 38.2658 34.2429 37.7233 34.8584 36.8538C35.1414 36.454 35.4667 35.965 35.7959 35.54C36.1322 35.1059 36.5283 34.6618 37.0142 34.3194L37.0143 34.3193C37.503 33.975 38.0628 33.7445 38.595 33.5664C39.1171 33.3917 39.6967 33.2422 40.1784 33.104C41.242 32.7989 41.9265 32.513 42.2838 32.0375L42.3001 32.0154C42.6371 31.548 42.7038 30.8423 42.6766 29.7836C42.6641 29.2966 42.6331 28.717 42.6447 28.1795C42.6565 27.6318 42.7116 27.0431 42.8993 26.4833C43.0834 25.9343 43.3967 25.4363 43.7174 24.9966C44.0309 24.567 44.4114 24.1164 44.7147 23.7345C45.385 22.8903 45.7719 22.2555 45.7719 21.6386ZM47.5687 21.6386C47.5687 22.9152 46.7839 23.9828 46.1392 24.7948C45.7849 25.241 45.4721 25.6069 45.185 26.0004C44.914 26.3719 44.7229 26.6946 44.6182 26.9919L44.6083 27.0206C44.4991 27.3462 44.4513 27.7407 44.4411 28.2157C44.4306 28.7009 44.4586 29.1837 44.4729 29.7404C44.4989 30.7525 44.4932 32.0545 43.7367 33.0612C42.9752 34.0743 41.6947 34.4835 40.6888 34.7721C40.1357 34.9307 39.6542 35.0527 39.1818 35.2107C38.7341 35.3605 38.3746 35.5185 38.098 35.7076L38.0715 35.726C37.7964 35.9199 37.5259 36.2061 37.2334 36.5838C36.9338 36.9706 36.6679 37.3749 36.3405 37.8373C35.7452 38.6783 34.9444 39.7324 33.7036 40.1225L33.7036 40.1226C32.4918 40.5035 31.2162 40.1017 30.2357 39.7658C29.1279 39.3864 28.2818 39.0502 27.5012 39.0502C26.7205 39.0502 25.8744 39.3864 24.7666 39.7658C23.7861 40.1017 22.5105 40.5035 21.2988 40.1226L21.2988 40.1225C20.058 39.7324 19.2571 38.6784 18.6618 37.8373C18.3344 37.3749 18.0685 36.9706 17.769 36.5838C17.4855 36.2179 17.2229 35.9379 16.9566 35.7445L16.9308 35.726C16.6508 35.5287 16.2826 35.3653 15.8204 35.2107C15.3481 35.0526 14.8666 34.9306 14.3135 34.772C13.3076 34.4834 12.0272 34.0742 11.2657 33.0612L11.2657 33.0612C10.5091 32.0545 10.5035 30.7525 10.5294 29.7404C10.5437 29.1837 10.5717 28.7009 10.5612 28.2157C10.5513 27.7556 10.5062 27.371 10.4041 27.0514L10.394 27.0206C10.2917 26.7154 10.0971 26.3839 9.81737 26.0004C9.53024 25.6069 9.21746 25.241 8.86317 24.7948C8.21844 23.9828 7.4336 22.9152 7.43359 21.6386C7.43359 20.3621 8.21844 19.2944 8.86317 18.4824C9.21746 18.0361 9.53024 17.6703 9.81737 17.2767C10.0971 16.8933 10.2917 16.5618 10.394 16.2566V16.2566C10.5032 15.9309 10.551 15.5365 10.5612 15.0615C10.5717 14.5763 10.5437 14.0935 10.5294 13.5368C10.5035 12.5247 10.5091 11.2226 11.2657 10.216L11.2836 10.1924C12.0471 9.19646 13.3155 8.79142 14.3136 8.50512C14.8667 8.34645 15.3481 8.22448 15.8205 8.06644C16.2826 7.91182 16.6508 7.74844 16.9308 7.55115C17.2059 7.35731 17.4764 7.0711 17.769 6.69337C18.0685 6.30663 18.3344 5.90232 18.6618 5.43987C19.2571 4.59883 20.058 3.54476 21.2988 3.15466L21.2988 3.15463C22.5105 2.7737 23.7861 3.17552 24.7666 3.51135C25.8744 3.89075 26.7205 4.22701 27.5012 4.22701C28.2818 4.22701 29.1279 3.89075 30.2357 3.51135C31.2162 3.17552 32.4918 2.77369 33.7036 3.15463L33.7036 3.15466C34.9444 3.54476 35.7452 4.59884 36.3405 5.43987C36.6679 5.90232 36.9338 6.30663 37.2334 6.69337C37.5259 7.0711 37.7964 7.35731 38.0715 7.55115L38.098 7.56955C38.3746 7.75867 38.7342 7.91669 39.1819 8.0665C39.6543 8.22456 40.1357 8.34655 40.6888 8.50523C41.6868 8.79156 42.9552 9.19661 43.7187 10.1923L43.7366 10.2159L43.7367 10.216C44.4932 11.2226 44.4989 12.5247 44.473 13.5368C44.4587 14.0935 44.4308 14.5763 44.4412 15.0615C44.4514 15.5365 44.4992 15.931 44.6084 16.2567H44.6083C44.7107 16.5619 44.9053 16.8934 45.185 17.2767C45.4721 17.6703 45.7849 18.0361 46.1392 18.4824C46.7839 19.2944 47.5687 20.3621 47.5687 21.6386Z" fill="url(#paint2_linear_1_986)"/>
<path d="M28.1101 33.0445C35.1629 33.0445 40.8804 27.8135 40.8804 21.3607C40.8804 14.9078 35.1629 9.67676 28.1101 9.67676C21.0573 9.67676 15.3398 14.9078 15.3398 21.3607C15.3398 27.8135 21.0573 33.0445 28.1101 33.0445Z" fill="white"/>
<path d="M39.0951 21.917C39.0951 16.0578 33.9035 11.3079 27.4995 11.3079C21.0954 11.3079 15.9039 16.0578 15.9039 21.917C15.9039 27.7763 21.0954 32.5262 27.4995 32.5262C33.9035 32.5262 39.0951 27.7763 39.0951 21.917ZM40.8779 21.917C40.8779 28.6771 34.8881 34.1573 27.4995 34.1573C20.1108 34.1573 14.1211 28.6771 14.1211 21.917C14.1211 15.1569 20.1108 9.67676 27.4995 9.67676C34.8881 9.67676 40.8778 15.1569 40.8779 21.917Z" fill="url(#paint3_linear_1_986)"/>
<defs>
<linearGradient id="paint0_linear_1_986" x1="23.2422" y1="34.713" x2="49.9989" y2="34.713" gradientUnits="userSpaceOnUse">
<stop stop-color="#BF5331"/>
<stop offset="1" stop-color="#EF6A5A"/>
</linearGradient>
<linearGradient id="paint1_linear_1_986" x1="5" y1="34.713" x2="31.7568" y2="34.713" gradientUnits="userSpaceOnUse">
<stop stop-color="#BF5331"/>
<stop offset="1" stop-color="#EF6A5A"/>
</linearGradient>
<linearGradient id="paint2_linear_1_986" x1="7.43359" y1="21.6386" x2="47.5687" y2="21.6386" gradientUnits="userSpaceOnUse">
<stop stop-color="#BF5331"/>
<stop offset="1" stop-color="#EF6A5A"/>
</linearGradient>
<linearGradient id="paint3_linear_1_986" x1="14.1211" y1="21.917" x2="40.8779" y2="21.917" gradientUnits="userSpaceOnUse">
<stop stop-color="#BF5331"/>
<stop offset="1" stop-color="#EF6A5A"/>
</linearGradient>
</defs>
</svg>
