<svg width="53" height="53" viewBox="0 0 53 53" fill="none" xmlns="http://www.w3.org/2000/svg">
<path d="M40.2538 3.3125H12.7462C11.8679 3.3135 11.026 3.66282 10.405 4.28382C9.78398 4.90481 9.43466 5.74678 9.43365 6.625V46.375C9.43466 47.2532 9.78398 48.0952 10.405 48.7162C11.026 49.3372 11.8679 49.6865 12.7462 49.6875H40.2538C41.1321 49.6866 41.9741 49.3373 42.5951 48.7163C43.2161 48.0952 43.5654 47.2532 43.5663 46.375V6.625C43.5654 5.74676 43.2161 4.90475 42.5951 4.28374C41.9741 3.66273 41.1321 3.31344 40.2538 3.3125ZM41.9101 46.375C41.9096 46.8141 41.7349 47.2351 41.4244 47.5456C41.1139 47.8561 40.6929 48.0307 40.2538 48.0312H12.7462C12.307 48.0308 11.886 47.8562 11.5755 47.5457C11.265 47.2351 11.0903 46.8141 11.0899 46.375V6.625C11.0903 6.18587 11.265 5.76485 11.5755 5.45434C11.886 5.14383 12.307 4.96919 12.7462 4.96875H40.2538C40.6929 4.96925 41.1139 5.14391 41.4244 5.45441C41.7349 5.76491 41.9096 6.18589 41.9101 6.625V46.375Z" fill="url(#paint0_linear_1_691)"/>
<path d="M15.8783 16.5265H20.2349C20.8936 16.5258 21.525 16.2638 21.9908 15.798C22.4566 15.3323 22.7185 14.7008 22.7193 14.0421V9.68555C22.7185 9.02687 22.4566 8.39538 21.9908 7.92962C21.525 7.46387 20.8936 7.20189 20.2349 7.20117H15.8783C15.2196 7.20189 14.5882 7.46387 14.1224 7.92962C13.6566 8.39538 13.3947 9.02687 13.394 9.68555V14.0421C13.3947 14.7008 13.6566 15.3323 14.1224 15.798C14.5882 16.2638 15.2196 16.5258 15.8783 16.5265ZM15.0502 9.68555C15.0505 9.466 15.1378 9.25553 15.2931 9.10029C15.4483 8.94505 15.6588 8.85771 15.8783 8.85742H20.2349C20.4544 8.85771 20.6649 8.94505 20.8201 9.10029C20.9754 9.25553 21.0627 9.466 21.063 9.68555V14.0421C21.0627 14.2616 20.9754 14.4721 20.8201 14.6274C20.6649 14.7826 20.4544 14.8699 20.2349 14.8702H15.8783C15.6588 14.8699 15.4483 14.7826 15.2931 14.6274C15.1378 14.4721 15.0505 14.2616 15.0502 14.0421V9.68555Z" fill="url(#paint1_linear_1_691)"/>
<path d="M38.7415 9.06445H25.2938C25.077 9.0688 24.8706 9.15796 24.7188 9.31279C24.5671 9.46763 24.4821 9.67579 24.4821 9.8926C24.4821 10.1094 24.5671 10.3176 24.7189 10.4724C24.8706 10.6272 25.0771 10.7164 25.2938 10.7207H38.7415C38.9583 10.7164 39.1647 10.6272 39.3165 10.4724C39.4682 10.3176 39.5532 10.1094 39.5532 9.89258C39.5532 9.67577 39.4682 9.46761 39.3165 9.31277C39.1647 9.15794 38.9583 9.06879 38.7415 9.06445Z" fill="url(#paint2_linear_1_691)"/>
<path d="M35.8609 14.6631C36.0777 14.6589 36.2842 14.5697 36.4361 14.4149C36.5879 14.26 36.673 14.0518 36.673 13.8349C36.673 13.6181 36.5879 13.4098 36.4361 13.255C36.2842 13.1002 36.0777 13.0111 35.8608 13.0068H25.2938C25.077 13.0111 24.8704 13.1002 24.7186 13.255C24.5667 13.4099 24.4817 13.6181 24.4817 13.835C24.4817 14.0519 24.5668 14.2601 24.7186 14.4149C24.8705 14.5698 25.077 14.6589 25.2939 14.6631H35.8609Z" fill="url(#paint3_linear_1_691)"/>
<path d="M38.7415 23.7002H25.2938C25.077 23.7044 24.8704 23.7935 24.7186 23.9484C24.5667 24.1032 24.4817 24.3115 24.4817 24.5283C24.4817 24.7452 24.5668 24.9534 24.7186 25.1083C24.8705 25.2631 25.077 25.3522 25.2939 25.3564H38.7415C38.9583 25.3521 39.1647 25.263 39.3165 25.1081C39.4683 24.9533 39.5533 24.7451 39.5533 24.5283C39.5533 24.3115 39.4683 24.1033 39.3165 23.9485C39.1647 23.7937 38.9583 23.7045 38.7415 23.7002Z" fill="url(#paint4_linear_1_691)"/>
<path d="M25.2938 29.2998H35.8609C36.0777 29.2956 36.2843 29.2065 36.4361 29.0516C36.588 28.8968 36.673 28.6885 36.673 28.4717C36.673 28.2548 36.5879 28.0466 36.4361 27.8917C36.2842 27.7369 36.0777 27.6478 35.8608 27.6436H25.2938C25.077 27.6479 24.8706 27.737 24.7189 27.8919C24.5671 28.0467 24.4821 28.2549 24.4821 28.4717C24.4821 28.6885 24.5671 28.8967 24.7189 29.0515C24.8706 29.2063 25.077 29.2955 25.2938 29.2998Z" fill="url(#paint5_linear_1_691)"/>
<path d="M20.2349 36.4736H15.8783C15.2196 36.4744 14.5882 36.7363 14.1224 37.2021C13.6566 37.6678 13.3947 38.2993 13.394 38.958V43.3146C13.3947 43.9732 13.6566 44.6047 14.1224 45.0705C14.5882 45.5362 15.2196 45.7982 15.8783 45.7989H20.2349C20.8936 45.7982 21.525 45.5362 21.9908 45.0705C22.4566 44.6047 22.7185 43.9732 22.7193 43.3146V38.958C22.7185 38.2993 22.4566 37.6678 21.9908 37.2021C21.525 36.7363 20.8936 36.4744 20.2349 36.4736ZM21.063 43.3146C21.0627 43.5341 20.9754 43.7446 20.8201 43.8998C20.6649 44.0551 20.4544 44.1424 20.2349 44.1427H15.8783C15.6588 44.1424 15.4483 44.0551 15.2931 43.8998C15.1378 43.7446 15.0505 43.5341 15.0502 43.3146V38.958C15.0505 38.7385 15.1378 38.528 15.2931 38.3728C15.4483 38.2175 15.6588 38.1302 15.8783 38.1299H20.2349C20.4544 38.1302 20.6649 38.2175 20.8201 38.3728C20.9754 38.528 21.0627 38.7385 21.063 38.958V43.3146Z" fill="url(#paint6_linear_1_691)"/>
<path d="M38.7415 38.3369H25.2938C25.077 38.3411 24.8704 38.4303 24.7186 38.5851C24.5667 38.74 24.4817 38.9482 24.4817 39.1651C24.4817 39.3819 24.5668 39.5902 24.7186 39.745C24.8705 39.8998 25.077 39.9889 25.2939 39.9932H38.7415C38.9583 39.9888 39.1647 39.8997 39.3165 39.7448C39.4683 39.59 39.5533 39.3818 39.5533 39.165C39.5533 38.9482 39.4683 38.7401 39.3165 38.5852C39.1647 38.4304 38.9583 38.3412 38.7415 38.3369Z" fill="url(#paint7_linear_1_691)"/>
<path d="M35.8609 42.2793H25.2938C25.077 42.2835 24.8704 42.3726 24.7186 42.5275C24.5667 42.6823 24.4817 42.8906 24.4817 43.1074C24.4817 43.3243 24.5668 43.5325 24.7186 43.6874C24.8705 43.8422 25.077 43.9313 25.2939 43.9355H35.8609C36.0777 43.9313 36.2843 43.8422 36.4361 43.6874C36.588 43.5325 36.673 43.3243 36.673 43.1074C36.673 42.8905 36.588 42.6823 36.4361 42.5275C36.2843 42.3726 36.0777 42.2835 35.8609 42.2793Z" fill="url(#paint8_linear_1_691)"/>
<path d="M25.2614 22.8554C25.4178 22.7052 25.5091 22.4996 25.5156 22.2829C25.5221 22.0662 25.4434 21.8555 25.2964 21.6962C25.1493 21.5369 24.9456 21.4415 24.7291 21.4307C24.5125 21.4199 24.3003 21.4944 24.1381 21.6383L22.4417 23.2043C22.2362 22.7947 21.9212 22.45 21.5316 22.2087C21.142 21.9673 20.6932 21.8387 20.2349 21.8372H15.8783C15.2196 21.8379 14.5882 22.0999 14.1224 22.5656C13.6566 23.0314 13.3947 23.6629 13.394 24.3216V28.6781C13.3947 29.3368 13.6566 29.9683 14.1224 30.434C14.5882 30.8998 15.2196 31.1618 15.8783 31.1625H20.2349C20.8936 31.1618 21.525 30.8998 21.9908 30.434C22.4566 29.9683 22.7185 29.3368 22.7193 28.6781V25.202L25.2614 22.8554ZM21.063 28.6781C21.0627 28.8977 20.9754 29.1081 20.8201 29.2634C20.6649 29.4186 20.4544 29.506 20.2349 29.5062H15.8783C15.6588 29.506 15.4483 29.4186 15.2931 29.2634C15.1378 29.1081 15.0505 28.8977 15.0502 28.6781V24.3216C15.0505 24.102 15.1378 23.8916 15.2931 23.7363C15.4483 23.5811 15.6588 23.4937 15.8783 23.4934H20.2349C20.4544 23.4937 20.6649 23.5811 20.8201 23.7363C20.9754 23.8916 21.0627 24.102 21.063 24.3216V24.477L18.4941 26.8484L17.2256 25.1529C17.0938 24.9777 16.8979 24.8619 16.6808 24.8309C16.4637 24.7999 16.2432 24.8563 16.0676 24.9876C15.892 25.119 15.7757 25.3146 15.7442 25.5316C15.7126 25.7487 15.7684 25.9693 15.8994 26.1452L17.7177 28.5758C17.7877 28.668 17.8761 28.7446 17.9773 28.8007C18.0784 28.8568 18.1902 28.8912 18.3054 28.9018C18.4206 28.9124 18.5368 28.8989 18.6465 28.8621C18.7561 28.8253 18.857 28.7661 18.9425 28.6882L21.063 26.7309V28.6781Z" fill="url(#paint9_linear_1_691)"/>
<defs>
<linearGradient id="paint0_linear_1_691" x1="9.43365" y1="26.5" x2="43.5663" y2="26.5" gradientUnits="userSpaceOnUse">
<stop stop-color="#BF5331"/>
<stop offset="1" stop-color="#EF6A5A"/>
</linearGradient>
<linearGradient id="paint1_linear_1_691" x1="13.394" y1="11.8638" x2="22.7193" y2="11.8638" gradientUnits="userSpaceOnUse">
<stop stop-color="#BF5331"/>
<stop offset="1" stop-color="#EF6A5A"/>
</linearGradient>
<linearGradient id="paint2_linear_1_691" x1="24.4821" y1="9.89258" x2="39.5532" y2="9.89258" gradientUnits="userSpaceOnUse">
<stop stop-color="#BF5331"/>
<stop offset="1" stop-color="#EF6A5A"/>
</linearGradient>
<linearGradient id="paint3_linear_1_691" x1="24.4817" y1="13.835" x2="36.673" y2="13.835" gradientUnits="userSpaceOnUse">
<stop stop-color="#BF5331"/>
<stop offset="1" stop-color="#EF6A5A"/>
</linearGradient>
<linearGradient id="paint4_linear_1_691" x1="24.4817" y1="24.5283" x2="39.5533" y2="24.5283" gradientUnits="userSpaceOnUse">
<stop stop-color="#BF5331"/>
<stop offset="1" stop-color="#EF6A5A"/>
</linearGradient>
<linearGradient id="paint5_linear_1_691" x1="24.4821" y1="28.4717" x2="36.673" y2="28.4717" gradientUnits="userSpaceOnUse">
<stop stop-color="#BF5331"/>
<stop offset="1" stop-color="#EF6A5A"/>
</linearGradient>
<linearGradient id="paint6_linear_1_691" x1="13.394" y1="41.1363" x2="22.7193" y2="41.1363" gradientUnits="userSpaceOnUse">
<stop stop-color="#BF5331"/>
<stop offset="1" stop-color="#EF6A5A"/>
</linearGradient>
<linearGradient id="paint7_linear_1_691" x1="24.4817" y1="39.165" x2="39.5533" y2="39.165" gradientUnits="userSpaceOnUse">
<stop stop-color="#BF5331"/>
<stop offset="1" stop-color="#EF6A5A"/>
</linearGradient>
<linearGradient id="paint8_linear_1_691" x1="24.4817" y1="43.1074" x2="36.673" y2="43.1074" gradientUnits="userSpaceOnUse">
<stop stop-color="#BF5331"/>
<stop offset="1" stop-color="#EF6A5A"/>
</linearGradient>
<linearGradient id="paint9_linear_1_691" x1="13.394" y1="26.2961" x2="25.516" y2="26.2961" gradientUnits="userSpaceOnUse">
<stop stop-color="#BF5331"/>
<stop offset="1" stop-color="#EF6A5A"/>
</linearGradient>
</defs>
</svg>
