<svg width="53" height="53" viewBox="0 0 53 53" fill="none" xmlns="http://www.w3.org/2000/svg">
<g clip-path="url(#clip0_1438_685)">
<path d="M40.5899 25.7995C44.3335 25.7995 47.3682 22.5587 47.3682 18.5609C47.3682 14.5631 44.3335 11.3223 40.5899 11.3223C36.8463 11.3223 33.8115 14.5631 33.8115 18.5609C33.8115 22.5587 36.8463 25.7995 40.5899 25.7995Z" fill="white" stroke="url(#paint0_linear_1438_685)" stroke-linecap="round" stroke-linejoin="round"/>
<path d="M46.9025 18.7212C46.9025 14.9094 44.0084 11.8181 40.437 11.8181C36.8656 11.8181 33.9716 14.9094 33.9716 18.7212C33.9716 22.533 36.8656 25.6243 40.437 25.6243C44.0084 25.6243 46.9025 22.533 46.9025 18.7212ZM47.6673 18.7212C47.6673 22.9862 44.4296 26.4424 40.437 26.4424C36.4445 26.4424 33.2068 22.9862 33.2068 18.7212C33.2068 14.4562 36.4445 11 40.437 11C44.4296 11 47.6673 14.4562 47.6673 18.7212Z" fill="url(#paint1_linear_1438_685)" stroke="url(#paint2_linear_1438_685)" stroke-linecap="round" stroke-linejoin="round"/>
<path d="M44.3302 25.7998H36.6485C32.1435 25.7998 28.4914 30.4739 28.4914 36.2404L28.3878 41.8856H52.3851L52.4887 36.2404C52.4887 30.4739 48.8367 25.7998 44.3316 25.7998H44.3302Z" fill="white" stroke="url(#paint3_linear_1438_685)" stroke-linecap="round" stroke-linejoin="round"/>
<path d="M44.3038 25.4766C49.0518 25.4766 52.7889 30.355 52.7889 36.2129C52.7889 36.2156 52.7889 36.2183 52.7888 36.2209L52.6859 41.8051C52.6818 42.0277 52.5112 42.2058 52.3021 42.2058H28.4693C28.3662 42.2058 28.2674 42.1616 28.1952 42.0832C28.123 42.0048 28.0835 41.8988 28.0856 41.789L28.1885 36.2049C28.1919 30.3505 31.9277 25.4766 36.6734 25.4766H44.3038ZM36.6734 26.2941C32.473 26.2941 28.9561 30.6627 28.9561 36.2129C28.9561 36.2156 28.956 36.2183 28.956 36.2209L28.8607 41.3883H51.9258L52.0212 36.2129L52.0206 36.083C51.9662 30.5947 48.4715 26.2941 44.3038 26.2941H36.6734Z" fill="url(#paint4_linear_1438_685)" stroke="url(#paint5_linear_1438_685)" stroke-linecap="round" stroke-linejoin="round"/>
<path d="M32.3046 34.249C32.3046 34.0246 32.4756 33.8428 32.6867 33.8428C32.8977 33.8428 33.0688 34.0246 33.0688 34.249V41.395H48.1097V34.249C48.1097 34.0246 48.2808 33.8428 48.4918 33.8428C48.7028 33.8428 48.8739 34.0246 48.8739 34.249V41.8012C48.8739 42.0255 48.7028 42.2074 48.4918 42.2074H32.6867C32.4756 42.2074 32.3046 42.0255 32.3046 41.8012V34.249Z" fill="url(#paint6_linear_1438_685)" stroke="url(#paint7_linear_1438_685)" stroke-linecap="round" stroke-linejoin="round"/>
<path d="M13.3527 25.7995C17.1795 25.7995 20.2817 22.5587 20.2817 18.5609C20.2817 14.5631 17.1795 11.3223 13.3527 11.3223C9.5259 11.3223 6.42368 14.5631 6.42368 18.5609C6.42368 22.5587 9.5259 25.7995 13.3527 25.7995Z" fill="white" stroke="url(#paint8_linear_1438_685)" stroke-linecap="round" stroke-linejoin="round"/>
<path d="M19.817 18.7212C19.817 14.9094 16.9229 11.8181 13.3515 11.8181C9.78015 11.8181 6.88609 14.9094 6.88609 18.7212C6.88609 22.533 9.78015 25.6243 13.3515 25.6243C16.9229 25.6243 19.817 22.533 19.817 18.7212ZM20.5818 18.7212C20.5818 22.9862 17.3441 26.4424 13.3515 26.4424C9.35901 26.4424 6.12131 22.9862 6.12131 18.7212C6.12131 14.4562 9.35901 11 13.3515 11C17.3441 11 20.5818 14.4562 20.5818 18.7212Z" fill="url(#paint9_linear_1438_685)" stroke="url(#paint10_linear_1438_685)" stroke-linecap="round" stroke-linejoin="round"/>
<path d="M17.2447 25.7998H9.56306C5.05799 25.7998 1.40595 30.4739 1.40595 36.2404L1.30234 41.8856H25.2996L25.4032 36.2404C25.4032 30.4739 21.7512 25.7998 17.2461 25.7998H17.2447Z" fill="white" stroke="url(#paint11_linear_1438_685)" stroke-linecap="round" stroke-linejoin="round"/>
<path d="M17.2184 25.4766C21.9663 25.4766 25.7034 30.355 25.7034 36.2129C25.7034 36.2156 25.7034 36.2183 25.7033 36.2209L25.6004 41.8051C25.5963 42.0277 25.4257 42.2058 25.2166 42.2058H1.38383C1.28073 42.2058 1.18193 42.1616 1.10975 42.0832C1.03757 42.0048 0.998051 41.8988 1.00007 41.789L1.103 36.2049C1.10641 30.3505 4.84221 25.4766 9.58797 25.4766H17.2184ZM9.58797 26.2941C5.38748 26.2941 1.87058 30.6627 1.87058 36.2129C1.87058 36.2156 1.87056 36.2183 1.87051 36.2209L1.77525 41.3883H24.8403L24.9357 36.2094C24.9342 30.6609 21.418 26.2941 17.2184 26.2941H9.58797Z" fill="url(#paint12_linear_1438_685)" stroke="url(#paint13_linear_1438_685)" stroke-linecap="round" stroke-linejoin="round"/>
<path d="M4.91656 34.247C4.91656 34.0227 5.08764 33.8408 5.29869 33.8408C5.50973 33.8408 5.68081 34.0227 5.68081 34.247V41.393H20.7217V34.247C20.7217 34.0227 20.8928 33.8408 21.1038 33.8408C21.3148 33.8408 21.4859 34.0227 21.4859 34.247V41.7992C21.4859 42.0236 21.3148 42.2054 21.1038 42.2054H5.29869C5.08765 42.2054 4.91657 42.0236 4.91656 41.7992V34.247Z" fill="url(#paint14_linear_1438_685)" stroke="url(#paint15_linear_1438_685)" stroke-linecap="round" stroke-linejoin="round"/>
</g>
<defs>
<linearGradient id="paint0_linear_1438_685" x1="33.8115" y1="18.5609" x2="47.3682" y2="18.5609" gradientUnits="userSpaceOnUse">
<stop stop-color="#BF5331"/>
<stop offset="1" stop-color="#EF6A5A"/>
</linearGradient>
<linearGradient id="paint1_linear_1438_685" x1="33.2068" y1="18.7212" x2="47.6673" y2="18.7212" gradientUnits="userSpaceOnUse">
<stop stop-color="#BF5331"/>
<stop offset="1" stop-color="#EF6A5A"/>
</linearGradient>
<linearGradient id="paint2_linear_1438_685" x1="33.2068" y1="18.7212" x2="47.6673" y2="18.7212" gradientUnits="userSpaceOnUse">
<stop stop-color="#BF5331"/>
<stop offset="1" stop-color="#EF6A5A"/>
</linearGradient>
<linearGradient id="paint3_linear_1438_685" x1="28.3878" y1="33.8427" x2="52.4887" y2="33.8427" gradientUnits="userSpaceOnUse">
<stop stop-color="#BF5331"/>
<stop offset="1" stop-color="#EF6A5A"/>
</linearGradient>
<linearGradient id="paint4_linear_1438_685" x1="28.0855" y1="33.8412" x2="52.7889" y2="33.8412" gradientUnits="userSpaceOnUse">
<stop stop-color="#BF5331"/>
<stop offset="1" stop-color="#EF6A5A"/>
</linearGradient>
<linearGradient id="paint5_linear_1438_685" x1="28.0855" y1="33.8412" x2="52.7889" y2="33.8412" gradientUnits="userSpaceOnUse">
<stop stop-color="#BF5331"/>
<stop offset="1" stop-color="#EF6A5A"/>
</linearGradient>
<linearGradient id="paint6_linear_1438_685" x1="32.3046" y1="38.0251" x2="48.8739" y2="38.0251" gradientUnits="userSpaceOnUse">
<stop stop-color="#BF5331"/>
<stop offset="1" stop-color="#EF6A5A"/>
</linearGradient>
<linearGradient id="paint7_linear_1438_685" x1="32.3046" y1="38.0251" x2="48.8739" y2="38.0251" gradientUnits="userSpaceOnUse">
<stop stop-color="#BF5331"/>
<stop offset="1" stop-color="#EF6A5A"/>
</linearGradient>
<linearGradient id="paint8_linear_1438_685" x1="6.42368" y1="18.5609" x2="20.2817" y2="18.5609" gradientUnits="userSpaceOnUse">
<stop stop-color="#BF5331"/>
<stop offset="1" stop-color="#EF6A5A"/>
</linearGradient>
<linearGradient id="paint9_linear_1438_685" x1="6.12131" y1="18.7212" x2="20.5818" y2="18.7212" gradientUnits="userSpaceOnUse">
<stop stop-color="#BF5331"/>
<stop offset="1" stop-color="#EF6A5A"/>
</linearGradient>
<linearGradient id="paint10_linear_1438_685" x1="6.12131" y1="18.7212" x2="20.5818" y2="18.7212" gradientUnits="userSpaceOnUse">
<stop stop-color="#BF5331"/>
<stop offset="1" stop-color="#EF6A5A"/>
</linearGradient>
<linearGradient id="paint11_linear_1438_685" x1="1.30234" y1="33.8427" x2="25.4032" y2="33.8427" gradientUnits="userSpaceOnUse">
<stop stop-color="#BF5331"/>
<stop offset="1" stop-color="#EF6A5A"/>
</linearGradient>
<linearGradient id="paint12_linear_1438_685" x1="1" y1="33.8412" x2="25.7034" y2="33.8412" gradientUnits="userSpaceOnUse">
<stop stop-color="#BF5331"/>
<stop offset="1" stop-color="#EF6A5A"/>
</linearGradient>
<linearGradient id="paint13_linear_1438_685" x1="1" y1="33.8412" x2="25.7034" y2="33.8412" gradientUnits="userSpaceOnUse">
<stop stop-color="#BF5331"/>
<stop offset="1" stop-color="#EF6A5A"/>
</linearGradient>
<linearGradient id="paint14_linear_1438_685" x1="4.91656" y1="38.0231" x2="21.4859" y2="38.0231" gradientUnits="userSpaceOnUse">
<stop stop-color="#BF5331"/>
<stop offset="1" stop-color="#EF6A5A"/>
</linearGradient>
<linearGradient id="paint15_linear_1438_685" x1="4.91656" y1="38.0231" x2="21.4859" y2="38.0231" gradientUnits="userSpaceOnUse">
<stop stop-color="#BF5331"/>
<stop offset="1" stop-color="#EF6A5A"/>
</linearGradient>
<clipPath id="clip0_1438_685">
<rect width="53" height="53" fill="white"/>
</clipPath>
</defs>
</svg>
