<svg width="53" height="53" viewBox="0 0 53 53" fill="none" xmlns="http://www.w3.org/2000/svg">
<g clip-path="url(#clip0_1438_1216)">
<path d="M10.4391 10.4393C1.58052 19.2979 1.58052 33.7026 10.4391 42.5611C14.8684 46.9904 20.6795 49.2051 26.5 49.2051C32.3205 49.2051 38.1316 46.9904 42.5609 42.5611C51.4195 33.7026 51.4195 19.2979 42.5609 10.4393C33.7023 1.58077 19.2977 1.58077 10.4391 10.4393ZM41.2264 41.2267C33.1061 49.347 19.8939 49.347 11.783 41.2267C3.66267 33.1063 3.66267 19.8942 11.783 11.7833C15.8432 7.72309 21.1716 5.69773 26.5095 5.69773C31.8473 5.69773 37.1757 7.73255 41.2359 11.7833C49.3562 19.9036 49.3562 33.1158 41.2359 41.2267H41.2264Z" fill="url(#paint0_linear_1438_1216)"/>
<path d="M26.5 0C19.4207 0 12.7673 2.75411 7.76071 7.76071C2.75411 12.7673 0 19.4207 0 26.5C0 33.5793 2.75411 40.2327 7.76071 45.2393C12.7673 50.2459 19.4207 53 26.5 53C33.5793 53 40.2327 50.2459 45.2393 45.2393C50.2459 40.2327 53 33.5793 53 26.5C53 19.4207 50.2459 12.7673 45.2393 7.76071C40.2327 2.75411 33.5793 0 26.5 0ZM43.8954 43.8954C39.2484 48.5423 33.0682 51.1071 26.5 51.1071C19.9318 51.1071 13.7516 48.5518 9.10464 43.8954C4.45768 39.2484 1.89286 33.0682 1.89286 26.5C1.89286 19.9318 4.44821 13.7516 9.10464 9.10464C13.7611 4.45768 19.9318 1.89286 26.5 1.89286C33.0682 1.89286 39.2484 4.44821 43.8954 9.10464C48.5423 13.7516 51.1071 19.9318 51.1071 26.5C51.1071 33.0682 48.5518 39.2484 43.8954 43.8954Z" fill="url(#paint1_linear_1438_1216)"/>
<path d="M38.6995 12.9946L23.3105 23.0362C23.3105 23.0362 23.2916 23.0551 23.2821 23.0646C23.2348 23.093 23.197 23.1214 23.1591 23.1498C23.1307 23.1782 23.1213 23.216 23.0929 23.2539C23.0739 23.2728 23.055 23.2823 23.0361 23.3107L12.9945 38.6996C12.7484 39.0782 12.8052 39.5703 13.1175 39.8826C13.2973 40.0624 13.5434 40.1571 13.7895 40.1571C13.9693 40.1571 14.1491 40.1098 14.31 40.0057L29.6989 29.9641C29.6989 29.9641 29.7368 29.9167 29.7652 29.8978C29.7936 29.8789 29.822 29.8694 29.8504 29.841C29.8788 29.8126 29.8882 29.7842 29.9072 29.7558C29.9261 29.7274 29.9545 29.718 29.9734 29.6896L40.015 14.3007C40.2611 13.9221 40.2043 13.4299 39.892 13.1176C39.5797 12.7958 39.078 12.7485 38.7089 12.9946H38.6995ZM23.9825 25.3171L27.683 29.0176L26.0173 30.106C26.0173 30.106 25.9889 30.1249 25.97 30.1344C25.9605 30.1344 25.9511 30.1533 25.9416 30.1628L17.0357 35.9739L23.9825 25.3266V25.3171ZM30.1627 25.9417C30.1627 25.9417 30.1438 25.9607 30.1343 25.9701C30.1248 25.9891 30.1154 25.9985 30.1059 26.0174L29.0175 27.6832L25.317 23.9826L35.9643 17.0358L30.1532 25.9417H30.1627Z" fill="url(#paint2_linear_1438_1216)"/>
<path d="M27.3707 37.9709C27.3518 37.9142 27.3234 37.8574 27.2855 37.8101C27.2571 37.7533 27.2098 37.706 27.172 37.6586C26.8218 37.3085 26.1782 37.3085 25.828 37.6586C25.7902 37.706 25.7523 37.7533 25.7145 37.8101C25.6766 37.8574 25.6482 37.9142 25.6293 37.9709C25.6009 38.0277 25.582 38.0845 25.5725 38.1508C25.563 38.2076 25.5536 38.2738 25.5536 38.3306C25.5536 38.5767 25.6577 38.8227 25.828 39.0026C26.0078 39.1729 26.2539 39.277 26.5 39.277C26.7461 39.277 26.9921 39.1729 27.172 39.0026C27.3423 38.8227 27.4464 38.5767 27.4464 38.3306C27.4464 38.2738 27.437 38.2076 27.4275 38.1508C27.418 38.0845 27.3991 38.0277 27.3707 37.9709Z" fill="url(#paint3_linear_1438_1216)"/>
<path d="M26.5 35.5667C27.0227 35.5667 27.4464 35.143 27.4464 34.6203C27.4464 34.0976 27.0227 33.6738 26.5 33.6738C25.9773 33.6738 25.5536 34.0976 25.5536 34.6203C25.5536 35.143 25.9773 35.5667 26.5 35.5667Z" fill="url(#paint4_linear_1438_1216)"/>
<path d="M26.5 19.326C27.0205 19.326 27.4464 18.9001 27.4464 18.3795C27.4464 17.859 27.0205 17.4331 26.5 17.4331C25.9795 17.4331 25.5536 17.8495 25.5536 18.3795C25.5536 18.9095 25.9795 19.326 26.5 19.326Z" fill="url(#paint5_linear_1438_1216)"/>
<path d="M25.9795 15.455C26.0268 15.4929 26.0836 15.5212 26.1403 15.5402C26.1971 15.5686 26.2539 15.5875 26.3107 15.597C26.377 15.597 26.4337 15.6159 26.5 15.6159C26.7461 15.6159 26.9921 15.5118 27.172 15.3414C27.3423 15.1616 27.4464 14.9155 27.4464 14.6695C27.4464 14.4234 27.3423 14.1773 27.172 13.9975C26.8218 13.6473 26.1877 13.6473 25.828 13.9975C25.6577 14.1773 25.5536 14.4139 25.5536 14.6695C25.5536 14.925 25.6577 15.1616 25.828 15.3414C25.8753 15.3793 25.9227 15.4171 25.9795 15.455Z" fill="url(#paint6_linear_1438_1216)"/>
<path d="M35.3869 34.0807C35.3869 34.0807 35.2828 34.0145 35.2261 33.9956C35.1693 33.9672 35.1125 33.9482 35.0462 33.9388C34.9327 33.9104 34.8002 33.9104 34.6771 33.9388C34.6203 33.9388 34.5636 33.9672 34.5068 33.9956C34.45 34.0145 34.3932 34.0429 34.3364 34.0807C34.2891 34.1091 34.2418 34.1565 34.1944 34.1943C34.0241 34.3741 33.92 34.6202 33.92 34.8663C33.92 34.9231 33.92 34.9893 33.9389 35.0461C33.9389 35.1123 33.9673 35.1691 33.9957 35.2259C34.0146 35.2827 34.043 35.3395 34.0809 35.3868C34.1093 35.4436 34.1566 35.4909 34.1944 35.5382C34.2418 35.5761 34.2891 35.614 34.3364 35.6518C34.3932 35.6897 34.45 35.7181 34.5068 35.737C34.5636 35.7654 34.6203 35.7843 34.6771 35.7938C34.7434 35.7938 34.8002 35.8127 34.8664 35.8127C34.9232 35.8127 34.9894 35.8032 35.0462 35.7938C35.1125 35.7938 35.1693 35.7654 35.2261 35.737C35.2828 35.7181 35.3396 35.6897 35.3869 35.6518C35.4437 35.614 35.4911 35.5761 35.5384 35.5382C35.5762 35.4909 35.6141 35.4436 35.6519 35.3868C35.6898 35.3395 35.7182 35.2827 35.7371 35.2259C35.7655 35.1691 35.7844 35.1123 35.7939 35.0461C35.7939 34.9893 35.8128 34.9231 35.8128 34.8663C35.8128 34.6202 35.7087 34.3741 35.5384 34.1943C35.4911 34.1565 35.4437 34.1091 35.3869 34.0807Z" fill="url(#paint7_linear_1438_1216)"/>
<path d="M31.3552 31.355C30.9861 31.7241 30.9861 32.3203 31.3552 32.6894C31.535 32.8692 31.7811 32.9639 32.0177 32.9639C32.2543 32.9639 32.5098 32.8692 32.6896 32.6894C33.0587 32.3203 33.0587 31.7241 32.6896 31.355C32.3205 30.9858 31.7243 30.9858 31.3552 31.355Z" fill="url(#paint8_linear_1438_1216)"/>
<path d="M20.9823 21.9289C21.2189 21.9289 21.465 21.8343 21.6448 21.645C22.0139 21.2759 22.0139 20.6796 21.6448 20.3105C21.2757 19.9414 20.6795 19.9414 20.3104 20.3105C19.9413 20.6796 19.9413 21.2759 20.3104 21.645C20.4902 21.8343 20.7363 21.9289 20.9823 21.9289Z" fill="url(#paint9_linear_1438_1216)"/>
<path d="M17.7739 19.0043C17.8875 19.0611 18.0105 19.08 18.1336 19.08C18.2566 19.08 18.3796 19.0611 18.4932 19.0043C18.6162 18.957 18.7203 18.8907 18.8055 18.8056C18.9853 18.6257 19.08 18.3797 19.08 18.1336C19.08 18.0106 19.0611 17.8875 19.0043 17.7739C18.957 17.6604 18.8907 17.5563 18.8055 17.4616C18.7203 17.3764 18.6162 17.3102 18.4932 17.2629C18.2661 17.1682 18.0011 17.1682 17.7739 17.2629C17.6603 17.3102 17.5562 17.3764 17.4616 17.4616C17.3764 17.5563 17.3102 17.6604 17.2628 17.7739C17.2155 17.8875 17.1871 18.0106 17.1871 18.1336C17.1871 18.3797 17.2912 18.6257 17.4616 18.8056C17.5562 18.8907 17.6603 18.957 17.7739 19.0043Z" fill="url(#paint10_linear_1438_1216)"/>
<path d="M39.2105 26.1405C39.1822 26.0837 39.1538 26.0269 39.1159 25.9701C39.0875 25.9228 39.0497 25.8755 39.0023 25.8282C38.955 25.7903 38.9077 25.7525 38.8604 25.7146C38.8036 25.6767 38.7468 25.6484 38.69 25.6294C38.6332 25.601 38.5764 25.5821 38.5197 25.5726C38.3304 25.5348 38.1411 25.5537 37.9707 25.6294C37.8572 25.6767 37.753 25.743 37.6584 25.8282C37.488 26.008 37.3839 26.2541 37.3839 26.5001C37.3839 26.6232 37.4123 26.7462 37.4597 26.8598C37.507 26.9828 37.5732 27.0775 37.6584 27.1721C37.753 27.2573 37.8572 27.3235 37.9707 27.3709C38.0843 27.4182 38.2073 27.4466 38.3304 27.4466C38.3966 27.4466 38.4534 27.4371 38.5197 27.4276C38.5764 27.4182 38.6332 27.3992 38.69 27.3709C38.7468 27.3519 38.8036 27.3235 38.8604 27.2857C38.9077 27.2478 38.955 27.21 39.0023 27.1721C39.0875 27.0775 39.1538 26.9734 39.2105 26.8598C39.2579 26.7462 39.2768 26.6232 39.2768 26.5001C39.2768 26.4339 39.2768 26.3771 39.2579 26.3109C39.2484 26.2541 39.2295 26.1973 39.2105 26.1405Z" fill="url(#paint11_linear_1438_1216)"/>
<path d="M34.6203 27.4466C35.1503 27.4466 35.5668 27.0207 35.5668 26.5001C35.5668 25.9796 35.1503 25.5537 34.6203 25.5537C34.0903 25.5537 33.6739 25.9796 33.6739 26.5001C33.6739 27.0207 34.0998 27.4466 34.6203 27.4466Z" fill="url(#paint12_linear_1438_1216)"/>
<path d="M18.3797 27.4466C18.9024 27.4466 19.3261 27.0228 19.3261 26.5001C19.3261 25.9774 18.9024 25.5537 18.3797 25.5537C17.857 25.5537 17.4332 25.9774 17.4332 26.5001C17.4332 27.0228 17.857 27.4466 18.3797 27.4466Z" fill="url(#paint13_linear_1438_1216)"/>
<path d="M13.9977 27.172C14.1775 27.3424 14.4236 27.4465 14.6696 27.4465C14.7927 27.4465 14.9157 27.4181 15.0293 27.3708C15.1428 27.3235 15.247 27.2572 15.3416 27.172C15.4268 27.0774 15.493 26.9733 15.5403 26.8597C15.5877 26.7461 15.6161 26.6231 15.6161 26.5001C15.6161 26.4338 15.6066 26.377 15.5971 26.3108C15.5877 26.254 15.5687 26.1972 15.5403 26.1404C15.5214 26.0836 15.493 26.0269 15.4552 25.9701C15.4173 25.9227 15.3795 25.8754 15.3416 25.8281C15.247 25.7429 15.1428 25.6767 15.0293 25.6293C14.6791 25.4779 14.2627 25.5631 13.9977 25.8281C13.9503 25.8754 13.9125 25.9227 13.8841 25.9701C13.8462 26.0269 13.8178 26.0836 13.7895 26.1404C13.7705 26.1972 13.7516 26.254 13.7421 26.3108C13.7232 26.377 13.7232 26.4338 13.7232 26.5001C13.7232 26.6231 13.7421 26.7461 13.7895 26.8597C13.8462 26.9733 13.9125 27.0774 13.9977 27.172Z" fill="url(#paint14_linear_1438_1216)"/>
</g>
<defs>
<linearGradient id="paint0_linear_1438_1216" x1="3.79517" y1="26.5002" x2="49.2048" y2="26.5002" gradientUnits="userSpaceOnUse">
<stop stop-color="#BF5331"/>
<stop offset="1" stop-color="#EF6A5A"/>
</linearGradient>
<linearGradient id="paint1_linear_1438_1216" x1="0" y1="26.5" x2="53" y2="26.5" gradientUnits="userSpaceOnUse">
<stop stop-color="#BF5331"/>
<stop offset="1" stop-color="#EF6A5A"/>
</linearGradient>
<linearGradient id="paint2_linear_1438_1216" x1="12.8412" y1="26.4977" x2="40.1683" y2="26.4977" gradientUnits="userSpaceOnUse">
<stop stop-color="#BF5331"/>
<stop offset="1" stop-color="#EF6A5A"/>
</linearGradient>
<linearGradient id="paint3_linear_1438_1216" x1="25.5536" y1="38.3365" x2="27.4464" y2="38.3365" gradientUnits="userSpaceOnUse">
<stop stop-color="#BF5331"/>
<stop offset="1" stop-color="#EF6A5A"/>
</linearGradient>
<linearGradient id="paint4_linear_1438_1216" x1="25.5536" y1="34.6203" x2="27.4464" y2="34.6203" gradientUnits="userSpaceOnUse">
<stop stop-color="#BF5331"/>
<stop offset="1" stop-color="#EF6A5A"/>
</linearGradient>
<linearGradient id="paint5_linear_1438_1216" x1="25.5536" y1="18.3795" x2="27.4464" y2="18.3795" gradientUnits="userSpaceOnUse">
<stop stop-color="#BF5331"/>
<stop offset="1" stop-color="#EF6A5A"/>
</linearGradient>
<linearGradient id="paint6_linear_1438_1216" x1="25.5536" y1="14.6754" x2="27.4464" y2="14.6754" gradientUnits="userSpaceOnUse">
<stop stop-color="#BF5331"/>
<stop offset="1" stop-color="#EF6A5A"/>
</linearGradient>
<linearGradient id="paint7_linear_1438_1216" x1="33.92" y1="34.8651" x2="35.8128" y2="34.8651" gradientUnits="userSpaceOnUse">
<stop stop-color="#BF5331"/>
<stop offset="1" stop-color="#EF6A5A"/>
</linearGradient>
<linearGradient id="paint8_linear_1438_1216" x1="31.0783" y1="32.021" x2="32.9665" y2="32.021" gradientUnits="userSpaceOnUse">
<stop stop-color="#BF5331"/>
<stop offset="1" stop-color="#EF6A5A"/>
</linearGradient>
<linearGradient id="paint9_linear_1438_1216" x1="20.0335" y1="20.9813" x2="21.9217" y2="20.9813" gradientUnits="userSpaceOnUse">
<stop stop-color="#BF5331"/>
<stop offset="1" stop-color="#EF6A5A"/>
</linearGradient>
<linearGradient id="paint10_linear_1438_1216" x1="17.1871" y1="18.136" x2="19.08" y2="18.136" gradientUnits="userSpaceOnUse">
<stop stop-color="#BF5331"/>
<stop offset="1" stop-color="#EF6A5A"/>
</linearGradient>
<linearGradient id="paint11_linear_1438_1216" x1="37.3839" y1="26.5001" x2="39.2768" y2="26.5001" gradientUnits="userSpaceOnUse">
<stop stop-color="#BF5331"/>
<stop offset="1" stop-color="#EF6A5A"/>
</linearGradient>
<linearGradient id="paint12_linear_1438_1216" x1="33.6739" y1="26.5001" x2="35.5668" y2="26.5001" gradientUnits="userSpaceOnUse">
<stop stop-color="#BF5331"/>
<stop offset="1" stop-color="#EF6A5A"/>
</linearGradient>
<linearGradient id="paint13_linear_1438_1216" x1="17.4332" y1="26.5001" x2="19.3261" y2="26.5001" gradientUnits="userSpaceOnUse">
<stop stop-color="#BF5331"/>
<stop offset="1" stop-color="#EF6A5A"/>
</linearGradient>
<linearGradient id="paint14_linear_1438_1216" x1="13.7232" y1="26.5006" x2="15.6161" y2="26.5006" gradientUnits="userSpaceOnUse">
<stop stop-color="#BF5331"/>
<stop offset="1" stop-color="#EF6A5A"/>
</linearGradient>
<clipPath id="clip0_1438_1216">
<rect width="53" height="53" fill="white"/>
</clipPath>
</defs>
</svg>
