<svg width="119" height="1081" viewBox="0 0 119 1081" fill="none" xmlns="http://www.w3.org/2000/svg">
<path d="M0.495066 42.9C0.495065 34.32 2.14507 26.785 5.44506 20.295C8.85506 13.805 13.5851 8.8 19.6351 5.28C25.6851 1.76 32.6701 1.32999e-06 40.5901 9.83792e-07L78.7051 -6.82268e-07C86.6251 -1.02846e-06 93.6101 1.76 99.6601 5.28C105.71 8.8 110.385 13.805 113.685 20.295C116.985 26.785 118.635 34.32 118.635 42.9C118.635 51.37 117.04 58.795 113.85 65.175C110.77 71.665 106.315 76.67 100.485 80.19C94.7651 83.82 88.1101 85.635 80.5201 85.635C79.5301 85.635 78.9251 84.975 78.7051 83.655L77.5501 64.35L77.5501 64.02C77.5501 62.92 78.1551 62.37 79.3651 62.37C85.1951 62.37 89.8701 60.555 93.3901 56.925C96.9101 53.405 98.6701 48.73 98.6701 42.9C98.6701 36.96 96.9101 32.175 93.3901 28.545C89.8701 25.025 85.1951 23.265 79.3651 23.265L39.6001 23.265C33.8801 23.265 29.2601 25.025 25.7401 28.545C22.2201 32.175 20.4601 36.96 20.4601 42.9C20.4601 48.73 22.2201 53.405 25.7401 56.925C29.2601 60.555 33.8801 62.37 39.6001 62.37C40.8101 62.37 41.4151 63.03 41.4151 64.35L40.5901 83.655C40.5901 84.205 40.4251 84.645 40.0951 84.975C39.7651 85.415 39.3801 85.635 38.9401 85.635C31.3501 85.635 24.6401 83.82 18.8101 80.19C12.9801 76.67 8.47007 71.665 5.28007 65.175C2.09007 58.795 0.495066 51.37 0.495066 42.9ZM115.335 165.726C115.885 165.726 116.325 165.891 116.655 166.221C117.095 166.661 117.315 167.156 117.315 167.706L117.315 187.011C117.315 187.561 117.095 188.001 116.655 188.331C116.325 188.771 115.885 188.991 115.335 188.991L3.79507 188.991C3.24507 188.991 2.75007 188.771 2.31007 188.331C1.98007 188.001 1.81507 187.561 1.81507 187.011L1.81507 167.706C1.81507 167.156 1.98007 166.661 2.31007 166.221C2.75007 165.891 3.24507 165.726 3.79507 165.726L49.3351 165.726C49.8851 165.726 50.1601 165.451 50.1601 164.901L50.1601 128.436C50.1601 127.886 49.8851 127.611 49.3351 127.611L3.79507 127.611C3.24507 127.611 2.75007 127.391 2.31007 126.951C1.98007 126.621 1.81507 126.181 1.81507 125.631L1.81507 106.326C1.81507 105.776 1.98007 105.281 2.31007 104.841C2.75007 104.511 3.24507 104.346 3.79507 104.346L115.335 104.346C115.885 104.346 116.325 104.511 116.655 104.841C117.095 105.281 117.315 105.776 117.315 106.326L117.315 125.631C117.315 126.181 117.095 126.621 116.655 126.951C116.325 127.391 115.885 127.611 115.335 127.611L70.9501 127.611C70.4001 127.611 70.1251 127.886 70.1251 128.436L70.1251 164.901C70.1251 165.451 70.4001 165.726 70.9501 165.726L115.335 165.726ZM1.81508 283.513C1.81508 282.413 2.36508 281.698 3.46508 281.368L19.6351 276.418C20.0751 276.198 20.2951 275.923 20.2951 275.593L20.2951 235.003C20.2951 234.673 20.0751 234.398 19.6351 234.178L3.46507 229.393C2.36507 229.063 1.81507 228.348 1.81507 227.248L1.81507 206.293C1.81507 205.633 1.98007 205.138 2.31007 204.808C2.75007 204.478 3.35507 204.423 4.12507 204.643L115.665 240.283C116.765 240.613 117.315 241.328 117.315 242.428L117.315 268.333C117.315 269.433 116.765 270.148 115.665 270.478L4.12508 306.118C3.90508 306.228 3.63008 306.283 3.30008 306.283C2.31008 306.283 1.81508 305.678 1.81508 304.468L1.81508 283.513ZM39.2701 240.118C38.6101 240.008 38.2801 240.228 38.2801 240.778L38.2801 269.818C38.2801 270.478 38.6101 270.698 39.2701 270.478L88.2751 255.628C88.7151 255.518 88.8801 255.353 88.7701 255.133C88.7701 254.913 88.6051 254.748 88.2751 254.638L39.2701 240.118ZM117.48 370.121C117.48 377.381 115.995 383.761 113.025 389.261C110.055 394.761 105.82 398.996 100.32 401.966C94.9301 405.046 88.7151 406.586 81.6751 406.586C74.7451 406.586 68.6401 404.991 63.3601 401.801C58.0801 398.721 53.9551 394.321 50.9851 388.601C48.1251 382.991 46.6951 376.501 46.6951 369.131L46.6951 345.701C46.6951 345.151 46.4201 344.876 45.8701 344.876L3.79508 344.876C3.24508 344.876 2.75008 344.656 2.31008 344.216C1.98008 343.886 1.81508 343.446 1.81508 342.896L1.81508 323.591C1.81508 323.041 1.98008 322.546 2.31008 322.106C2.75008 321.776 3.24508 321.611 3.79508 321.611L115.5 321.611C116.05 321.611 116.49 321.776 116.82 322.106C117.26 322.546 117.48 323.041 117.48 323.591L117.48 370.121ZM65.3401 366.656C65.3401 371.716 66.7701 375.786 69.6301 378.866C72.6001 381.946 76.4501 383.486 81.1801 383.486C86.0201 383.486 89.9251 381.946 92.8951 378.866C95.8651 375.786 97.3501 371.716 97.3501 366.656L97.3501 345.701C97.3501 345.151 97.0751 344.876 96.5251 344.876L66.1651 344.876C65.6151 344.876 65.3401 345.151 65.3401 345.701L65.3401 366.656ZM117.315 502.233C117.315 502.783 117.095 503.223 116.655 503.553C116.325 503.993 115.885 504.213 115.335 504.213L99.1651 504.213C98.6151 504.213 98.1201 503.993 97.6801 503.553C97.3501 503.223 97.1851 502.783 97.1851 502.233L97.1851 472.698C97.1851 472.148 96.9101 471.873 96.3601 471.873L3.79508 471.873C3.24508 471.873 2.75008 471.653 2.31008 471.213C1.98008 470.883 1.81508 470.443 1.81508 469.893L1.81508 450.588C1.81508 450.038 1.98008 449.543 2.31008 449.103C2.75008 448.773 3.24508 448.608 3.79508 448.608L96.3601 448.608C96.9101 448.608 97.1851 448.333 97.1851 447.783L97.1851 419.073C97.1851 418.523 97.3501 418.028 97.6801 417.588C98.1201 417.258 98.6151 417.093 99.1651 417.093L115.335 417.093C115.885 417.093 116.325 417.258 116.655 417.588C117.095 418.028 117.315 418.523 117.315 419.073L117.315 502.233ZM99.3301 600.896C98.7801 600.896 98.2851 600.676 97.8451 600.236C97.5151 599.906 97.3501 599.466 97.3501 598.916L97.3501 544.796C97.3501 544.246 97.0751 543.971 96.5251 543.971L70.9501 543.971C70.4001 543.971 70.1251 544.246 70.1251 544.796L70.1251 580.271C70.1251 580.821 69.9051 581.261 69.4651 581.591C69.1351 582.031 68.6951 582.251 68.1451 582.251L52.1401 582.251C51.5901 582.251 51.0951 582.031 50.6551 581.591C50.3251 581.261 50.1601 580.821 50.1601 580.271L50.1601 544.796C50.1601 544.246 49.8851 543.971 49.3351 543.971L22.6051 543.971C22.0551 543.971 21.7801 544.246 21.7801 544.796L21.7801 598.916C21.7801 599.466 21.5601 599.906 21.1201 600.236C20.7901 600.676 20.3501 600.896 19.8001 600.896L3.79509 600.896C3.24509 600.896 2.75009 600.676 2.31009 600.236C1.98009 599.906 1.81509 599.466 1.81509 598.916L1.81509 522.686C1.81509 522.136 1.98009 521.641 2.31009 521.201C2.75009 520.871 3.24509 520.706 3.79509 520.706L115.335 520.706C115.885 520.706 116.325 520.871 116.655 521.201C117.095 521.641 117.315 522.136 117.315 522.686L117.315 598.916C117.315 599.466 117.095 599.906 116.655 600.236C116.325 600.676 115.885 600.896 115.335 600.896L99.3301 600.896ZM1.81509 682.074C1.81509 680.974 2.31009 680.204 3.30009 679.764L49.0051 659.139C49.4451 658.919 49.6651 658.589 49.6651 658.149L49.6651 642.804C49.6651 642.254 49.3901 641.979 48.8401 641.979L3.79509 641.979C3.24509 641.979 2.75009 641.759 2.31009 641.319C1.98009 640.989 1.81509 640.549 1.81509 639.999L1.81509 620.694C1.81509 620.144 1.98009 619.649 2.31009 619.209C2.75009 618.879 3.24509 618.714 3.79509 618.714L115.335 618.714C115.885 618.714 116.325 618.879 116.655 619.209C117.095 619.649 117.315 620.144 117.315 620.694L117.315 667.884C117.315 674.924 115.885 681.084 113.025 686.364C110.165 691.754 106.095 695.879 100.815 698.739C95.5351 701.709 89.4301 703.194 82.5001 703.194C75.0201 703.194 68.5851 701.324 63.1951 697.584C57.9151 693.844 54.1751 688.619 51.9751 681.909C51.7551 681.359 51.3701 681.194 50.8201 681.414L4.12509 703.854C3.68509 704.074 3.35509 704.184 3.13509 704.184C2.25509 704.184 1.81509 703.579 1.81509 702.369L1.81509 682.074ZM97.3501 642.804C97.3501 642.254 97.0751 641.979 96.5251 641.979L68.3101 641.979C67.7601 641.979 67.4851 642.254 67.4851 642.804L67.4851 664.419C67.4851 669.039 68.8601 672.779 71.6101 675.639C74.3601 678.609 77.9351 680.094 82.3351 680.094C86.7351 680.094 90.3101 678.609 93.0601 675.639C95.9201 672.779 97.3501 669.039 97.3501 664.419L97.3501 642.804ZM117.315 836.094C117.315 836.644 117.095 837.084 116.655 837.414C116.325 837.854 115.885 838.074 115.335 838.074L99.1651 838.074C98.6151 838.074 98.1201 837.854 97.6801 837.414C97.3501 837.084 97.1851 836.644 97.1851 836.094L97.1851 806.559C97.1851 806.009 96.9101 805.734 96.3601 805.734L3.7951 805.734C3.2451 805.734 2.7501 805.514 2.3101 805.074C1.9801 804.744 1.8151 804.304 1.8151 803.754L1.8151 784.449C1.8151 783.899 1.9801 783.404 2.3101 782.964C2.7501 782.634 3.2451 782.469 3.7951 782.469L96.3601 782.469C96.9101 782.469 97.1851 782.194 97.1851 781.644L97.1851 752.934C97.1851 752.384 97.3501 751.889 97.6801 751.449C98.1201 751.119 98.6151 750.954 99.1651 750.954L115.335 750.954C115.885 750.954 116.325 751.119 116.655 751.449C117.095 751.889 117.315 752.384 117.315 752.934L117.315 836.094ZM1.8151 880.142C1.8151 878.932 2.3651 878.162 3.4651 877.832L115.17 848.627L115.83 848.462C116.82 848.462 117.315 849.067 117.315 850.277L117.315 870.737C117.315 871.837 116.765 872.552 115.665 872.882L48.5101 888.557C48.0701 888.667 47.8501 888.832 47.8501 889.052C47.8501 889.272 48.0701 889.437 48.5101 889.547L115.5 904.727C116.71 905.057 117.315 905.772 117.315 906.872L117.315 926.837C117.315 928.047 116.765 928.817 115.665 929.147L48.5101 945.647C48.1801 945.757 47.9601 945.922 47.8501 946.142C47.8501 946.362 48.0701 946.527 48.5101 946.637L115.5 961.817C116.71 962.147 117.315 962.862 117.315 963.962L117.315 983.432C117.315 984.972 116.6 985.577 115.17 985.247L3.46511 958.187C2.36511 957.857 1.81511 957.087 1.81511 955.877L1.8151 936.242C1.8151 935.142 2.3651 934.427 3.4651 934.097L74.9101 917.267C75.3501 917.157 75.5701 916.992 75.5701 916.772C75.5701 916.552 75.3501 916.387 74.9101 916.277L3.6301 900.602C2.4201 900.382 1.8151 899.667 1.8151 898.457L1.8151 880.142ZM0.000108988 1036.52C0.000108613 1027.94 1.76011 1020.35 5.28011 1013.75C8.80011 1007.26 13.6951 1002.2 19.9651 998.571C26.3451 994.941 33.6601 993.126 41.9101 993.126L77.2201 993.126C85.3601 993.126 92.5651 994.941 98.8351 998.571C105.105 1002.2 109.945 1007.26 113.355 1013.75C116.875 1020.35 118.635 1027.94 118.635 1036.52C118.635 1045.21 116.875 1052.8 113.355 1059.29C109.945 1065.89 105.105 1071.01 98.8351 1074.64C92.5651 1078.27 85.3601 1080.08 77.2201 1080.08L41.9101 1080.08C33.6601 1080.08 26.3451 1078.27 19.9651 1074.64C13.5851 1071.01 8.63511 1065.89 5.11511 1059.29C1.70511 1052.8 0.000109368 1045.21 0.000108988 1036.52ZM19.9651 1036.52C19.9651 1042.57 21.8901 1047.47 25.7401 1051.21C29.5901 1054.95 34.7051 1056.82 41.0851 1056.82L77.3851 1056.82C83.7651 1056.82 88.8801 1054.95 92.7301 1051.21C96.6901 1047.58 98.6701 1042.68 98.6701 1036.52C98.6701 1030.47 96.6901 1025.58 92.7301 1021.84C88.8801 1018.21 83.7651 1016.39 77.3851 1016.39L41.0851 1016.39C34.7051 1016.39 29.5901 1018.21 25.7401 1021.84C21.8901 1025.58 19.9651 1030.47 19.9651 1036.52Z" fill="#EFEFEF"/>
</svg>
